  0
SECTION
  2
HEADER
  9
$ACADVER
  1
AC1015
  9
$ACADMAINTVER
 70
     6
  9
$DWGCODEPAGE
  3
ANSI_950
  9
$INSBASE
 10
0.0
 20
0.0
 30
0.0
  9
$EXTMIN
 10
-30.7451697852
 20
-21.3188295535
 30
0.0
  9
$EXTMAX
 10
65.0213278965
 20
73.5849994591
 30
0.0
  9
$LIMMIN
 10
0.0
 20
0.0
  9
$LIMMAX
 10
420.0
 20
297.0
  9
$ORTHOMODE
 70
     0
  9
$REGENMODE
 70
     1
  9
$FILLMODE
 70
     1
  9
$QTEXTMODE
 70
     0
  9
$MIRRTEXT
 70
     1
  9
$LTSCALE
 40
1.0
  9
$ATTMODE
 70
     1
  9
$TEXTSIZE
 40
3.5
  9
$TRACEWID
 40
1.0
  9
$TEXTSTYLE
  7
Standard
  9
$CLAYER
  8
0
  9
$CELTYPE
  6
ByLayer
  9
$CECOLOR
 62
   256
  9
$CELTSCALE
 40
1.0
  9
$DISPSILH
 70
     0
  9
$DIMSCALE
 40
1.0
  9
$DIMASZ
 40
3.302
  9
$DIMEXO
 40
1.0
  9
$DIMDLI
 40
3.75
  9
$DIMRND
 40
0.0
  9
$DIMDLE
 40
0.0
  9
$DIMEXE
 40
1.0
  9
$DIMTP
 40
0.0
  9
$DIMTM
 40
0.0
  9
$DIMTXT
 40
3.5
  9
$DIMCEN
 40
2.5
  9
$DIMTSZ
 40
0.0
  9
$DIMTOL
 70
     0
  9
$DIMLIM
 70
     0
  9
$DIMTIH
 70
     1
  9
$DIMTOH
 70
     1
  9
$DIMSE1
 70
     0
  9
$DIMSE2
 70
     0
  9
$DIMTAD
 70
     1
  9
$DIMZIN
 70
     0
  9
$DIMBLK
  1

  9
$DIMASO
 70
     1
  9
$DIMSHO
 70
     1
  9
$DIMPOST
  1

  9
$DIMAPOST
  1

  9
$DIMALT
 70
     0
  9
$DIMALTD
 70
     3
  9
$DIMALTF
 40
0.0393700787
  9
$DIMLFAC
 40
1.0
  9
$DIMTOFL
 70
     1
  9
$DIMTVP
 40
0.0
  9
$DIMTIX
 70
     0
  9
$DIMSOXD
 70
     0
  9
$DIMSAH
 70
     0
  9
$DIMBLK1
  1

  9
$DIMBLK2
  1

  9
$DIMSTYLE
  2
ISO-25
  9
$DIMCLRD
 70
     0
  9
$DIMCLRE
 70
     0
  9
$DIMCLRT
 70
     0
  9
$DIMTFAC
 40
1.0
  9
$DIMGAP
 40
1.524
  9
$DIMJUST
 70
     0
  9
$DIMSD1
 70
     0
  9
$DIMSD2
 70
     0
  9
$DIMTOLJ
 70
     0
  9
$DIMTZIN
 70
     0
  9
$DIMALTZ
 70
     0
  9
$DIMALTTZ
 70
     0
  9
$DIMUPT
 70
     0
  9
$DIMDEC
 70
     3
  9
$DIMTDEC
 70
     3
  9
$DIMALTU
 70
     2
  9
$DIMALTTD
 70
     3
  9
$DIMTXSTY
  7
Standard
  9
$DIMAUNIT
 70
     0
  9
$DIMADEC
 70
     2
  9
$DIMALTRND
 40
0.0
  9
$DIMAZIN
 70
     0
  9
$DIMDSEP
 70
    44
  9
$DIMATFIT
 70
     3
  9
$DIMFRAC
 70
     0
  9
$DIMLDRBLK
  1

  9
$DIMLUNIT
 70
     2
  9
$DIMLWD
 70
    -2
  9
$DIMLWE
 70
    -2
  9
$DIMTMOVE
 70
     0
  9
$LUNITS
 70
     2
  9
$LUPREC
 70
     2
  9
$SKETCHINC
 40
1.0
  9
$FILLETRAD
 40
10.0
  9
$AUNITS
 70
     0
  9
$AUPREC
 70
     2
  9
$MENU
  1
.
  9
$ELEVATION
 40
0.0
  9
$PELEVATION
 40
0.0
  9
$THICKNESS
 40
0.0
  9
$LIMCHECK
 70
     0
  9
$CHAMFERA
 40
10.0
  9
$CHAMFERB
 40
10.0
  9
$CHAMFERC
 40
20.0
  9
$CHAMFERD
 40
0.0
  9
$SKPOLY
 70
     0
  9
$TDCREATE
 40
2456399.776807928
  9
$TDUCREATE
 40
2456399.943474595
  9
$TDUPDATE
 40
2456399.77680794
  9
$TDUUPDATE
 40
2456399.943474607
  9
$TDINDWG
 40
0.0000000116
  9
$TDUSRTIMER
 40
0.0000000116
  9
$USRTIMER
 70
     1
  9
$ANGBASE
 50
0.0
  9
$ANGDIR
 70
     0
  9
$PDMODE
 70
     0
  9
$PDSIZE
 40
-1.0
  9
$PLINEWID
 40
0.0
  9
$SPLFRAME
 70
     0
  9
$SPLINETYPE
 70
     6
  9
$SPLINESEGS
 70
     8
  9
$HANDSEED
  5
356
  9
$SURFTAB1
 70
     6
  9
$SURFTAB2
 70
     6
  9
$SURFTYPE
 70
     6
  9
$SURFU
 70
     6
  9
$SURFV
 70
     6
  9
$UCSBASE
  2

  9
$UCSNAME
  2

  9
$UCSORG
 10
0.0
 20
0.0
 30
0.0
  9
$UCSXDIR
 10
1.0
 20
0.0
 30
0.0
  9
$UCSYDIR
 10
0.0
 20
1.0
 30
0.0
  9
$UCSORTHOREF
  2

  9
$UCSORTHOVIEW
 70
     0
  9
$UCSORGTOP
 10
0.0
 20
0.0
 30
0.0
  9
$UCSORGBOTTOM
 10
0.0
 20
0.0
 30
0.0
  9
$UCSORGLEFT
 10
0.0
 20
0.0
 30
0.0
  9
$UCSORGRIGHT
 10
0.0
 20
0.0
 30
0.0
  9
$UCSORGFRONT
 10
0.0
 20
0.0
 30
0.0
  9
$UCSORGBACK
 10
0.0
 20
0.0
 30
0.0
  9
$PUCSBASE
  2

  9
$PUCSNAME
  2

  9
$PUCSORG
 10
0.0
 20
0.0
 30
0.0
  9
$PUCSXDIR
 10
1.0
 20
0.0
 30
0.0
  9
$PUCSYDIR
 10
0.0
 20
1.0
 30
0.0
  9
$PUCSORTHOREF
  2

  9
$PUCSORTHOVIEW
 70
     0
  9
$PUCSORGTOP
 10
0.0
 20
0.0
 30
0.0
  9
$PUCSORGBOTTOM
 10
0.0
 20
0.0
 30
0.0
  9
$PUCSORGLEFT
 10
0.0
 20
0.0
 30
0.0
  9
$PUCSORGRIGHT
 10
0.0
 20
0.0
 30
0.0
  9
$PUCSORGFRONT
 10
0.0
 20
0.0
 30
0.0
  9
$PUCSORGBACK
 10
0.0
 20
0.0
 30
0.0
  9
$USERI1
 70
     0
  9
$USERI2
 70
     0
  9
$USERI3
 70
     0
  9
$USERI4
 70
     0
  9
$USERI5
 70
     0
  9
$USERR1
 40
0.0
  9
$USERR2
 40
0.0
  9
$USERR3
 40
0.0
  9
$USERR4
 40
0.0
  9
$USERR5
 40
0.0
  9
$WORLDVIEW
 70
     1
  9
$SHADEDGE
 70
     3
  9
$SHADEDIF
 70
    70
  9
$TILEMODE
 70
     1
  9
$MAXACTVP
 70
    64
  9
$PINSBASE
 10
0.0
 20
0.0
 30
0.0
  9
$PLIMCHECK
 70
     0
  9
$PEXTMIN
 10
1.0000000000E+20
 20
1.0000000000E+20
 30
1.0000000000E+20
  9
$PEXTMAX
 10
-1.0000000000E+20
 20
-1.0000000000E+20
 30
-1.0000000000E+20
  9
$PLIMMIN
 10
0.0
 20
0.0
  9
$PLIMMAX
 10
420.0
 20
297.0
  9
$UNITMODE
 70
     0
  9
$VISRETAIN
 70
     1
  9
$PLINEGEN
 70
     0
  9
$PSLTSCALE
 70
     1
  9
$TREEDEPTH
 70
  3020
  9
$CMLSTYLE
  2
Standard
  9
$CMLJUST
 70
     0
  9
$CMLSCALE
 40
20.0
  9
$PROXYGRAPHICS
 70
     1
  9
$MEASUREMENT
 70
     1
  9
$CELWEIGHT
370
    -1
  9
$ENDCAPS
280
     0
  9
$JOINSTYLE
280
     0
  9
$LWDISPLAY
290
     1
  9
$INSUNITS
 70
     4
  9
$HYPERLINKBASE
  1

  9
$STYLESHEET
  1

  9
$XEDIT
290
     1
  9
$CEPSNTYPE
380
     0
  9
$PSTYLEMODE
290
     1
  9
$FINGERPRINTGUID
  2
{383838A6-8854-4D4F-A218-610DA36D4F00}
  9
$VERSIONGUID
  2
{FAEB1C32-E019-11D5-929B-00C0DF256EC4}
  9
$EXTNAMES
290
     1
  9
$PSVPSCALE
 40
0.0
  9
$OLESTARTUP
290
     0
  0
ENDSEC
  0
SECTION
  2
CLASSES
  0
CLASS
  1
ACDBDICTIONARYWDFLT
  2
AcDbDictionaryWithDefault
  3
ObjectDBX Classes
 90
        0
280
     0
281
     0
  0
CLASS
  1
VISUALSTYLE
  2
AcDbVisualStyle
  3
ObjectDBX Classes
 90
     4095
280
     0
281
     0
  0
CLASS
  1
DICTIONARYVAR
  2
AcDbDictionaryVar
  3
ObjectDBX Classes
 90
        0
280
     0
281
     0
  0
CLASS
  1
ACDBPLACEHOLDER
  2
AcDbPlaceHolder
  3
ObjectDBX Classes
 90
        0
280
     0
281
     0
  0
CLASS
  1
LAYOUT
  2
AcDbLayout
  3
ObjectDBX Classes
 90
        0
280
     0
281
     0
  0
ENDSEC
  0
SECTION
  2
TABLES
  0
TABLE
  2
VPORT
  5
8
330
0
100
AcDbSymbolTable
 70
     1
  0
VPORT
  5
29
330
8
100
AcDbSymbolTableRecord
100
AcDbViewportTableRecord
  2
*Active
 70
     0
 10
0.0
 20
0.0
 11
1.0
 21
1.0
 12
17.1380790556
 22
26.1330849528
 13
0.0
 23
0.0
 14
10.0
 24
10.0
 15
10.0
 25
10.0
 16
0.0
 26
0.0
 36
1.0
 17
0.0
 27
0.0
 37
0.0
 40
96.8019055929
 41
1.0090899248
 42
50.0
 43
0.0
 44
0.0
 50
0.0
 51
0.0
 71
     0
 72
   100
 73
     1
 74
     3
 75
     0
 76
     0
 77
     0
 78
     0
281
     0
 65
     1
110
0.0
120
0.0
130
0.0
111
1.0
121
0.0
131
0.0
112
0.0
122
1.0
132
0.0
 79
     0
146
0.0
  0
ENDTAB
  0
TABLE
  2
LTYPE
  5
5
330
0
100
AcDbSymbolTable
 70
     6
  0
LTYPE
  5
14
330
5
100
AcDbSymbolTableRecord
100
AcDbLinetypeTableRecord
  2
ByBlock
 70
     0
  3

 72
    65
 73
     0
 40
0.0
  0
LTYPE
  5
15
330
5
100
AcDbSymbolTableRecord
100
AcDbLinetypeTableRecord
  2
ByLayer
 70
     0
  3

 72
    65
 73
     0
 40
0.0
  0
LTYPE
  5
16
330
5
100
AcDbSymbolTableRecord
100
AcDbLinetypeTableRecord
  2
Continuous
 70
     0
  3
Solid line
 72
    65
 73
     0
 40
0.0
  0
LTYPE
  5
3B
330
5
100
AcDbSymbolTableRecord
100
AcDbLinetypeTableRecord
  2
HIDDEN
 70
     0
  3
Hidden __ __ __ __ __ __ __ __ __ __ __ __ __ __
 72
    65
 73
     2
 40
1.905
 49
1.27
 74
     0
 49
-0.635
 74
     0
  0
LTYPE
  5
3C
330
5
100
AcDbSymbolTableRecord
100
AcDbLinetypeTableRecord
  2
PHANTOM
 70
     0
  3
Phantom ______  __  __  ______  __  __  ______
 72
    65
 73
     6
 40
12.7
 49
6.35
 74
     0
 49
-1.27
 74
     0
 49
1.27
 74
     0
 49
-1.27
 74
     0
 49
1.27
 74
     0
 49
-1.27
 74
     0
  0
LTYPE
  5
3D
330
5
100
AcDbSymbolTableRecord
100
AcDbLinetypeTableRecord
  2
CENTER
 70
     0
  3
Center ____ _ ____ _ ____ _ ____ _ ____ _ ____
 72
    65
 73
     4
 40
10.16
 49
6.35
 74
     0
 49
-1.27
 74
     0
 49
1.27
 74
     0
 49
-1.27
 74
     0
  0
LTYPE
  5
3E
330
5
100
AcDbSymbolTableRecord
100
AcDbLinetypeTableRecord
  2
CENTERX2
 70
     0
  3
Center (2x) ________  __  ________  __  _____
 72
    65
 73
     4
 40
20.32
 49
12.7
 74
     0
 49
-2.54
 74
     0
 49
2.54
 74
     0
 49
-2.54
 74
     0
  0
LTYPE
  5
3F
330
5
100
AcDbSymbolTableRecord
100
AcDbLinetypeTableRecord
  2
DOT2
 70
     0
  3
Dot (.5x) ........................................
 72
    65
 73
     2
 40
0.635
 49
0.0
 74
     0
 49
-0.635
 74
     0
  0
ENDTAB
  0
TABLE
  2
LAYER
  5
2
330
0
100
AcDbSymbolTable
 70
     1
  0
LAYER
  5
10
330
2
100
AcDbSymbolTableRecord
100
AcDbLayerTableRecord
  2
0
 70
     0
 62
     7
  6
Continuous
370
    -3
390
F
  0
ENDTAB
  0
TABLE
  2
STYLE
  5
3
330
0
100
AcDbSymbolTable
 70
     1
  0
STYLE
  5
11
330
3
100
AcDbSymbolTableRecord
100
AcDbTextStyleTableRecord
  2
Standard
 70
     0
 40
0.0
 41
1.0
 50
0.0
 71
     0
 42
2.5
  3
txt
  4

  0
ENDTAB
  0
TABLE
  2
VIEW
  5
6
330
0
100
AcDbSymbolTable
 70
     0
  0
ENDTAB
  0
TABLE
  2
UCS
  5
7
330
0
100
AcDbSymbolTable
 70
     0
  0
ENDTAB
  0
TABLE
  2
APPID
  5
9
330
0
100
AcDbSymbolTable
 70
     1
  0
APPID
  5
12
330
9
100
AcDbSymbolTableRecord
100
AcDbRegAppTableRecord
  2
ACAD
 70
     0
  0
ENDTAB
  0
TABLE
  2
DIMSTYLE
  5
A
330
0
100
AcDbSymbolTable
 70
     1
100
AcDbDimStyleTable
  0
DIMSTYLE
105
27
330
A
100
AcDbSymbolTableRecord
100
AcDbDimStyleTableRecord
  2
ISO-25
 70
     0
 41
2.5
 42
0.625
 43
3.75
 44
1.25
 73
     0
 74
     0
 77
     1
 78
     8
140
2.5
141
2.5
143
0.0393700787
147
0.625
171
     3
172
     1
271
     2
272
     2
274
     3
278
    44
283
     0
284
     8
340
11
  0
ENDTAB
  0
TABLE
  2
BLOCK_RECORD
  5
1
330
0
100
AcDbSymbolTable
 70
     1
  0
BLOCK_RECORD
  5
1F
330
1
100
AcDbSymbolTableRecord
100
AcDbBlockTableRecord
  2
*Model_Space
340
22
  0
BLOCK_RECORD
  5
1B
330
1
100
AcDbSymbolTableRecord
100
AcDbBlockTableRecord
  2
*Paper_Space
340
1E
  0
BLOCK_RECORD
  5
23
330
1
100
AcDbSymbolTableRecord
100
AcDbBlockTableRecord
  2
*Paper_Space0
340
26
  0
ENDTAB
  0
ENDSEC
  0
SECTION
  2
BLOCKS
  0
BLOCK
  5
20
330
1F
100
AcDbEntity
  8
0
100
AcDbBlockBegin
  2
*Model_Space
 70
     0
 10
0.0
 20
0.0
 30
0.0
  3
*Model_Space
  1

  0
ENDBLK
  5
21
330
1F
100
AcDbEntity
  8
0
100
AcDbBlockEnd
  0
BLOCK
  5
1C
330
1B
100
AcDbEntity
 67
     1
  8
0
100
AcDbBlockBegin
  2
*Paper_Space
 70
     0
 10
0.0
 20
0.0
 30
0.0
  3
*Paper_Space
  1

  0
ENDBLK
  5
1D
330
1B
100
AcDbEntity
 67
     1
  8
0
100
AcDbBlockEnd
  0
BLOCK
  5
24
330
23
100
AcDbEntity
  8
0
100
AcDbBlockBegin
  2
*Paper_Space0
 70
     0
 10
0.0
 20
0.0
 30
0.0
  3
*Paper_Space0
  1

  0
ENDBLK
  5
25
330
23
100
AcDbEntity
  8
0
100
AcDbBlockEnd
  0
ENDSEC
  0
SECTION
  2
ENTITIES
  0
CIRCLE
  5
54
330
1F
100
AcDbEntity
  8
0
  6
Continuous
 62
     7
370
    15
100
AcDbCircle
 10
11.3616247887
 20
51.0849994591
 30
0.0
 40
22.50000000000002
  0
CIRCLE
  5
FE
330
1F
100
AcDbEntity
  8
0
  6
Continuous
 62
     7
370
    15
100
AcDbCircle
 10
42.5213278965
 20
6.5823649027
 30
0.0
 40
17.50000000000001
  0
CIRCLE
  5
115
330
1F
100
AcDbEntity
  8
0
  6
Continuous
 62
     7
370
    15
100
AcDbCircle
 10
42.5213278965
 20
6.5823649027
 30
0.0
 40
15.99999999999999
  0
CIRCLE
  5
116
330
1F
100
AcDbEntity
  8
0
  6
Continuous
 62
     7
370
    15
100
AcDbCircle
 10
42.5213278965
 20
6.5823649027
 30
0.0
 40
17.49999999999997
  0
CIRCLE
  5
182
330
1F
100
AcDbEntity
  8
0
  6
Continuous
 62
     7
370
    15
100
AcDbCircle
 10
42.5213278965
 20
6.5823649027
 30
0.0
 40
16.00000000000001
  0
LINE
  5
1CA
330
1F
100
AcDbEntity
  8
0
  6
Continuous
 62
     7
370
    15
100
AcDbLine
 10
6.6131746559
 20
37.9881558217
 30
0.0
 11
14.49163668
 21
36.5989704004
 31
0.0
  0
LINE
  5
1CB
330
1F
100
AcDbEntity
  8
0
  6
Continuous
 62
     7
370
    15
100
AcDbLine
 10
15.0708646453
 20
37.0045501881
 30
0.0
 11
15.7242159138
 21
40.7098893588
 31
0.0
  0
LINE
  5
1CC
330
1F
100
AcDbEntity
  8
0
  6
Continuous
 62
     7
370
    15
100
AcDbLine
 10
15.3186361261
 20
41.2891173241
 30
0.0
 11
7.440174102
 21
42.6783027455
 31
0.0
  0
LINE
  5
1CD
330
1F
100
AcDbEntity
  8
0
  6
Continuous
 62
     7
370
    15
100
AcDbLine
 10
6.8609461367
 20
42.2727229578
 30
0.0
 11
6.2075948682
 21
38.5673837871
 31
0.0
  0
LINE
  5
1CE
330
1F
100
AcDbEntity
  8
0
  6
Continuous
 62
     7
370
    15
100
AcDbLine
 10
-1.4727646047
 20
8.1923943554
 30
0.0
 11
-0.7227646047
 21
8.1923943554
 31
0.0
  0
LINE
  5
1CF
330
1F
100
AcDbEntity
  8
0
  6
Continuous
 62
     7
370
    15
100
AcDbLine
 10
-0.7227646047
 20
8.7985198303
 30
0.0
 11
1.2616103953
 21
8.7985198303
 31
0.0
  0
LINE
  5
1D0
330
1F
100
AcDbEntity
  8
0
  6
Continuous
 62
     7
370
    15
100
AcDbLine
 10
-0.7227646047
 20
8.1923943554
 30
0.0
 11
-0.7227646047
 21
8.7985198303
 31
0.0
  0
LINE
  5
1D1
330
1F
100
AcDbEntity
  8
0
  6
Continuous
 62
     7
370
    15
100
AcDbLine
 10
1.2616103953
 20
7.7985198303
 30
0.0
 11
-0.7227646047
 21
-0.9776056446
 31
0.0
  0
LINE
  5
1D2
330
1F
100
AcDbEntity
  8
0
  6
Continuous
 62
     7
370
    15
100
AcDbLine
 10
1.2616103953
 20
8.7985198303
 30
0.0
 11
1.2616103953
 21
7.7985198303
 31
0.0
  0
LINE
  5
1D3
330
1F
100
AcDbEntity
  8
0
  6
Continuous
 62
     7
370
    15
100
AcDbLine
 10
-1.4727646047
 20
8.1923943554
 30
0.0
 11
-1.7227646047
 21
7.9423943554
 31
0.0
  0
LINE
  5
1D4
330
1F
100
AcDbEntity
  8
0
  6
Continuous
 62
     7
370
    15
100
AcDbLine
 10
-0.7227646047
 20
-1.7276056446
 30
0.0
 11
-2.4571396047
 21
-1.7276056446
 31
0.0
  0
LINE
  5
1D5
330
1F
100
AcDbEntity
  8
0
  6
Continuous
 62
     7
370
    15
100
AcDbLine
 10
-2.7071396047
 20
-0.7276056446
 30
0.0
 11
-1.7227646047
 21
3.6972762452
 31
0.0
  0
LINE
  5
1D6
330
1F
100
AcDbEntity
  8
0
  6
Continuous
 62
     7
370
    15
100
AcDbLine
 10
-1.7227646047
 20
3.6972762452
 30
0.0
 11
-1.7227646047
 21
7.9423943554
 31
0.0
  0
LINE
  5
1D7
330
1F
100
AcDbEntity
  8
0
  6
Continuous
 62
     7
370
    15
100
AcDbLine
 10
-0.7227646047
 20
-0.9776056446
 30
0.0
 11
-0.7227646047
 21
-1.7276056446
 31
0.0
  0
LINE
  5
1D8
330
1F
100
AcDbEntity
  8
0
  6
Continuous
 62
     7
370
    15
100
AcDbLine
 10
-2.7071396047
 20
-1.4776056446
 30
0.0
 11
-2.4571396047
 21
-1.7276056446
 31
0.0
  0
LINE
  5
1D9
330
1F
100
AcDbEntity
  8
0
  6
Continuous
 62
     7
370
    15
100
AcDbLine
 10
-2.7071396047
 20
-1.4776056446
 30
0.0
 11
-2.7071396047
 21
-0.7276056446
 31
0.0
  0
LINE
  5
1DA
330
1F
100
AcDbEntity
  8
0
  6
Continuous
 62
     7
370
    15
100
AcDbLine
 10
-5.5562706943
 20
63.554250183
 30
0.0
 11
-6.2057897471
 21
63.929250183
 31
0.0
  0
LINE
  5
1DB
330
1F
100
AcDbEntity
  8
0
  6
Continuous
 62
     7
370
    15
100
AcDbLine
 10
-6.2057897471
 20
63.929250183
 30
0.0
 11
-8.5870397471
 21
59.8048041975
 31
0.0
  0
LINE
  5
1DC
330
1F
100
AcDbEntity
  8
0
  6
Continuous
 62
     7
370
    15
100
AcDbLine
 10
-8.5870397471
 20
59.8048041975
 30
0.0
 11
-7.9375206943
 21
59.4298041975
 31
0.0
  0
LINE
  5
1DD
330
1F
100
AcDbEntity
  8
0
  6
Continuous
 62
     7
370
    15
100
AcDbLine
 10
-7.9375206943
 20
59.4298041975
 30
0.0
 11
-5.5562706943
 21
63.554250183
 31
0.0
  0
LINE
  5
1DE
330
1F
100
AcDbEntity
  8
0
  6
Continuous
 62
     7
370
    15
100
AcDbLine
 10
9.0998976336
 20
30.1060745615
 30
0.0
 11
9.0998976336
 21
29.3560745615
 31
0.0
  0
LINE
  5
1DF
330
1F
100
AcDbEntity
  8
0
  6
Continuous
 62
     7
370
    15
100
AcDbLine
 10
9.0998976336
 20
29.3560745615
 30
0.0
 11
13.8623976336
 21
29.3560745615
 31
0.0
  0
LINE
  5
1E0
330
1F
100
AcDbEntity
  8
0
  6
Continuous
 62
     7
370
    15
100
AcDbLine
 10
13.8623976336
 20
29.3560745615
 30
0.0
 11
13.8623976336
 21
30.1060745615
 31
0.0
  0
LINE
  5
1E1
330
1F
100
AcDbEntity
  8
0
  6
Continuous
 62
     7
370
    15
100
AcDbLine
 10
13.8623976336
 20
30.1060745615
 30
0.0
 11
9.0998976336
 21
30.1060745615
 31
0.0
  0
LINE
  5
1E2
330
1F
100
AcDbEntity
  8
0
  6
Continuous
 62
     7
370
    15
100
AcDbLine
 10
20.1213599231
 20
68.1898647136
 30
0.0
 11
20.5251757443
 21
69.2993395638
 31
0.0
  0
LINE
  5
1E3
330
1F
100
AcDbEntity
  8
0
  6
Continuous
 62
     7
370
    15
100
AcDbLine
 10
20.2263395055
 20
69.9401959458
 30
0.0
 11
16.6907460198
 21
71.2270467351
 31
0.0
  0
LINE
  5
1E4
330
1F
100
AcDbEntity
  8
0
  6
Continuous
 62
     7
370
    15
100
AcDbLine
 10
16.0498896378
 20
70.9282104964
 30
0.0
 11
15.6460738166
 21
69.8187356462
 31
0.0
  0
LINE
  5
1E5
330
1F
100
AcDbEntity
  8
0
  6
Continuous
 62
     7
370
    15
100
AcDbLine
 10
7.0771757607
 20
69.8187356462
 30
0.0
 11
6.6733599396
 21
70.9282104964
 31
0.0
  0
LINE
  5
1E6
330
1F
100
AcDbEntity
  8
0
  6
Continuous
 62
     7
370
    15
100
AcDbLine
 10
6.0325035575
 20
71.2270467351
 30
0.0
 11
2.4969100718
 21
69.9401959458
 31
0.0
  0
LINE
  5
1E7
330
1F
100
AcDbEntity
  8
0
  6
Continuous
 62
     7
370
    15
100
AcDbLine
 10
2.1980738331
 20
69.2993395638
 30
0.0
 11
2.6018896542
 21
68.1898647136
 31
0.0
  0
LINE
  5
1E8
330
1F
100
AcDbEntity
  8
0
  6
Continuous
 62
     7
370
    15
100
AcDbLine
 10
-7.8314906173
 20
50.1187199888
 30
0.0
 11
-8.9942319329
 21
49.9136973232
 31
0.0
  0
LINE
  5
1E9
330
1F
100
AcDbEntity
  8
0
  6
Continuous
 62
     7
370
    15
100
AcDbLine
 10
-9.3998117206
 20
49.3344693579
 30
0.0
 11
-8.7464604521
 21
45.6291301872
 31
0.0
  0
LINE
  5
1EA
330
1F
100
AcDbEntity
  8
0
  6
Continuous
 62
     7
370
    15
100
AcDbLine
 10
-8.1672324868
 20
45.2235503995
 30
0.0
 11
-7.0044911711
 21
45.4285730651
 31
0.0
  0
LINE
  5
1EB
330
1F
100
AcDbEntity
  8
0
  6
Continuous
 62
     7
370
    15
100
AcDbLine
 10
-2.7200421431
 20
38.0076896662
 30
0.0
 11
-3.4789676377
 21
37.1032374815
 31
0.0
  0
LINE
  5
1EC
330
1F
100
AcDbEntity
  8
0
  6
Continuous
 62
     7
370
    15
100
AcDbLine
 10
-3.4173392209
 20
36.3988214551
 30
0.0
 11
-0.5350970037
 21
33.9803330737
 31
0.0
  0
LINE
  5
1ED
330
1F
100
AcDbEntity
  8
0
  6
Continuous
 62
     7
370
    15
100
AcDbLine
 10
0.1693190227
 20
34.0419614904
 30
0.0
 11
0.9282445172
 21
34.946413675
 31
0.0
  0
LINE
  5
1EE
330
1F
100
AcDbEntity
  8
0
  6
Continuous
 62
     7
370
    15
100
AcDbLine
 10
21.7950050601
 20
34.946413675
 30
0.0
 11
22.5539305546
 21
34.0419614904
 31
0.0
  0
LINE
  5
1EF
330
1F
100
AcDbEntity
  8
0
  6
Continuous
 62
     7
370
    15
100
AcDbLine
 10
23.258346581
 20
33.9803330737
 30
0.0
 11
26.1405887983
 21
36.3988214551
 31
0.0
  0
LINE
  5
1F0
330
1F
100
AcDbEntity
  8
0
  6
Continuous
 62
     7
370
    15
100
AcDbLine
 10
26.202217215
 20
37.1032374815
 30
0.0
 11
25.4432917205
 21
38.0076896662
 31
0.0
  0
LINE
  5
1F1
330
1F
100
AcDbEntity
  8
0
  6
Continuous
 62
     7
370
    15
100
AcDbLine
 10
29.7277407485
 20
45.4285730651
 30
0.0
 11
30.8904820641
 21
45.2235503995
 31
0.0
  0
LINE
  5
1F2
330
1F
100
AcDbEntity
  8
0
  6
Continuous
 62
     7
370
    15
100
AcDbLine
 10
31.4697100294
 20
45.6291301872
 30
0.0
 11
32.1230612979
 21
49.3344693579
 31
0.0
  0
LINE
  5
1F3
330
1F
100
AcDbEntity
  8
0
  6
Continuous
 62
     7
370
    15
100
AcDbLine
 10
31.7174815102
 20
49.9136973232
 30
0.0
 11
30.5547401946
 21
50.1187199888
 31
0.0
  0
LINE
  5
1F4
330
1F
100
AcDbEntity
  8
0
  6
Continuous
 62
     7
370
    15
100
AcDbLine
 10
30.7387832681
 20
59.5227764664
 30
0.0
 11
31.388302321
 21
59.8977764664
 31
0.0
  0
LINE
  5
1F5
330
1F
100
AcDbEntity
  8
0
  6
Continuous
 62
     7
370
    15
100
AcDbLine
 10
31.388302321
 20
59.8977764664
 30
0.0
 11
29.007052321
 21
64.0222224519
 31
0.0
  0
LINE
  5
1F6
330
1F
100
AcDbEntity
  8
0
  6
Continuous
 62
     7
370
    15
100
AcDbLine
 10
29.007052321
 20
64.0222224519
 30
0.0
 11
28.3575332681
 21
63.6472224519
 31
0.0
  0
LINE
  5
1F7
330
1F
100
AcDbEntity
  8
0
  6
Continuous
 62
     7
370
    15
100
AcDbLine
 10
28.3575332681
 20
63.6472224519
 30
0.0
 11
30.7387832681
 21
59.5227764664
 31
0.0
  0
LINE
  5
1F8
330
1F
100
AcDbEntity
  8
0
  6
Continuous
 62
     7
370
    15
100
AcDbLine
 10
7.102101543
 20
59.8533533569
 30
0.0
 11
7.102101543
 21
62.8533533569
 31
0.0
  0
LINE
  5
1F9
330
1F
100
AcDbEntity
  8
0
  6
Continuous
 62
     7
370
    15
100
AcDbLine
 10
6.852101543
 20
63.1033533569
 30
0.0
 11
0.852101543
 21
63.1033533569
 31
0.0
  0
LINE
  5
1FA
330
1F
100
AcDbEntity
  8
0
  6
Continuous
 62
     7
370
    15
100
AcDbLine
 10
0.852101543
 20
59.6033533569
 30
0.0
 11
6.852101543
 21
59.6033533569
 31
0.0
  0
LINE
  5
1FB
330
1F
100
AcDbEntity
  8
0
  6
Continuous
 62
     7
370
    15
100
AcDbLine
 10
0.602101543
 20
62.8533533569
 30
0.0
 11
0.602101543
 21
59.8533533569
 31
0.0
  0
LINE
  5
1FC
330
1F
100
AcDbEntity
  8
0
  6
Continuous
 62
     7
370
    15
100
AcDbLine
 10
-8.48391596
 20
6.4960113259
 30
0.0
 11
-17.2255857108
 21
6.4960113259
 31
0.0
  0
LINE
  5
1FD
330
1F
100
AcDbEntity
  8
0
  6
Continuous
 62
     7
370
    15
100
AcDbLine
 10
-17.4420920618
 20
6.1210113259
 30
0.0
 11
-13.0712571864
 21
-1.4494967498
 31
0.0
  0
LINE
  5
1FE
330
1F
100
AcDbEntity
  8
0
  6
Continuous
 62
     7
370
    15
100
AcDbLine
 10
-12.6382444845
 20
-1.4494967498
 30
0.0
 11
-8.2674096091
 21
6.1210113259
 31
0.0
  0
LINE
  5
1FF
330
1F
100
AcDbEntity
  8
0
  6
Continuous
 62
     7
370
    15
100
AcDbLine
 10
-20.8703758354
 20
9.4960113259
 30
0.0
 11
-21.8625633354
 21
7.7774921652
 31
0.0
  0
LINE
  5
200
330
1F
100
AcDbEntity
  8
0
  6
Continuous
 62
     7
370
    15
100
AcDbLine
 10
-4.8391258354
 20
9.4960113259
 30
0.0
 11
-20.8703758354
 21
9.4960113259
 31
0.0
  0
LINE
  5
201
330
1F
100
AcDbEntity
  8
0
  6
Continuous
 62
     7
370
    15
100
AcDbLine
 10
-3.8469383354
 20
7.7774921652
 30
0.0
 11
-4.8391258354
 21
9.4960113259
 31
0.0
  0
LINE
  5
202
330
1F
100
AcDbEntity
  8
0
  6
Continuous
 62
     7
370
    15
100
AcDbLine
 10
-11.8625633354
 20
-6.1059775892
 30
0.0
 11
-3.8469383354
 21
7.7774921652
 31
0.0
  0
LINE
  5
203
330
1F
100
AcDbEntity
  8
0
  6
Continuous
 62
     7
370
    15
100
AcDbLine
 10
-13.8469383354
 20
-6.1059775892
 30
0.0
 11
-11.8625633354
 21
-6.1059775892
 31
0.0
  0
LINE
  5
204
330
1F
100
AcDbEntity
  8
0
  6
Continuous
 62
     7
370
    15
100
AcDbLine
 10
-21.8625633354
 20
7.7774921652
 30
0.0
 11
-13.8469383354
 21
-6.1059775892
 31
0.0
  0
LINE
  5
205
330
1F
100
AcDbEntity
  8
0
  6
Continuous
 62
     7
370
    15
100
AcDbLine
 10
23.657229077
 20
39.6303508327
 30
0.0
 11
20.9210679304
 21
47.147891799
 31
0.0
  0
LINE
  5
206
330
1F
100
AcDbEntity
  8
0
  6
Continuous
 62
     7
370
    15
100
AcDbLine
 10
19.8227993526
 20
37.7026436614
 30
0.0
 11
23.3583928383
 21
38.9894944506
 31
0.0
  0
LINE
  5
207
330
1F
100
AcDbEntity
  8
0
  6
Continuous
 62
     7
370
    15
100
AcDbLine
 10
16.4457818239
 20
45.5190208664
 30
0.0
 11
19.1819429705
 21
38.0014799001
 31
0.0
  0
LINE
  5
208
330
1F
100
AcDbEntity
  8
0
  6
Continuous
 62
     7
370
    15
100
AcDbLine
 10
20.2802115483
 20
47.4467280377
 30
0.0
 11
16.7446180626
 21
46.1598772485
 31
0.0
  0
LINE
  5
209
330
1F
100
AcDbEntity
  8
0
  6
Continuous
 62
     7
370
    15
100
AcDbLine
 10
13.7913348079
 20
53.5433569133
 30
0.0
 11
8.6490339305
 21
47.4150013684
 31
0.0
  0
LINE
  5
20A
330
1F
100
AcDbEntity
  8
0
  6
Continuous
 62
     7
370
    15
100
AcDbLine
 10
8.7106623472
 20
46.710585342
 30
0.0
 11
11.5929045644
 21
44.2920969605
 31
0.0
  0
LINE
  5
20B
330
1F
100
AcDbEntity
  8
0
  6
Continuous
 62
     7
370
    15
100
AcDbLine
 10
12.2973205908
 20
44.3537253773
 30
0.0
 11
17.4396214683
 21
50.4820809222
 31
0.0
  0
LINE
  5
20C
330
1F
100
AcDbEntity
  8
0
  6
Continuous
 62
     7
370
    15
100
AcDbLine
 10
17.3779930516
 20
51.1864969486
 30
0.0
 11
14.4957508344
 21
53.6049853301
 31
0.0
  0
LINE
  5
20D
330
1F
100
AcDbEntity
  8
0
  6
Continuous
 62
     7
370
    15
100
AcDbLine
 10
17.8965691178
 20
55.1403033226
 30
0.0
 11
14.8965691178
 21
60.3364557453
 31
0.0
  0
LINE
  5
20E
330
1F
100
AcDbEntity
  8
0
  6
Continuous
 62
     7
370
    15
100
AcDbLine
 10
14.9880754687
 20
60.6779620963
 30
0.0
 11
17.5861516801
 21
62.1779620963
 31
0.0
  0
LINE
  5
20F
330
1F
100
AcDbEntity
  8
0
  6
Continuous
 62
     7
370
    15
100
AcDbLine
 10
17.927658031
 20
62.0864557453
 30
0.0
 11
20.927658031
 21
56.8903033226
 31
0.0
  0
LINE
  5
210
330
1F
100
AcDbEntity
  8
0
  6
Continuous
 62
     7
370
    15
100
AcDbLine
 10
20.8361516801
 20
56.5487969717
 30
0.0
 11
18.2380754687
 21
55.0487969717
 31
0.0
  0
LINE
  5
211
330
1F
100
AcDbEntity
  8
0
  6
Continuous
 62
     7
370
    15
100
AcDbLine
 10
-3.8447991858
 20
-4.0419069282
 30
0.0
 11
-3.1952801329
 21
-3.6669069282
 31
0.0
  0
LINE
  5
212
330
1F
100
AcDbEntity
  8
0
  6
Continuous
 62
     7
370
    15
100
AcDbLine
 10
-10.4529592938
 20
-10.1484888263
 30
0.0
 11
-3.8447991858
 21
-4.0419069282
 31
0.0
  0
LINE
  5
213
330
1F
100
AcDbEntity
  8
0
  6
Continuous
 62
     7
370
    15
100
AcDbLine
 10
-11.3189846976
 20
-10.6484888263
 30
0.0
 11
-10.4529592938
 21
-10.1484888263
 31
0.0
  0
LINE
  5
214
330
1F
100
AcDbEntity
  8
0
  6
Continuous
 62
     7
370
    15
100
AcDbLine
 10
-12.3111721976
 20
-8.9299696656
 30
0.0
 11
-11.3189846976
 21
-10.6484888263
 31
0.0
  0
LINE
  5
215
330
1F
100
AcDbEntity
  8
0
  6
Continuous
 62
     7
370
    15
100
AcDbLine
 10
-11.7862521385
 20
-8.6269069282
 30
0.0
 11
-12.3111721976
 21
-8.9299696656
 31
0.0
  0
LINE
  5
216
330
1F
100
AcDbEntity
  8
0
  6
Continuous
 62
     7
370
    15
100
AcDbLine
 10
-12.1612521385
 20
-7.9773878753
 30
0.0
 11
-11.7862521385
 21
-8.6269069282
 31
0.0
  0
LINE
  5
217
330
1F
100
AcDbEntity
  8
0
  6
Continuous
 62
     7
370
    15
100
AcDbLine
 10
-12.0697457875
 20
-7.6358815244
 30
0.0
 11
-12.1612521385
 21
-7.9773878753
 31
0.0
  0
LINE
  5
218
330
1F
100
AcDbEntity
  8
0
  6
Continuous
 62
     7
370
    15
100
AcDbLine
 10
-8.393365662
 20
-5.5133224693
 30
0.0
 11
-12.0697457875
 21
-7.6358815244
 31
0.0
  0
LINE
  5
219
330
1F
100
AcDbEntity
  8
0
  6
Continuous
 62
     7
370
    15
100
AcDbLine
 10
-5.0534930367
 20
-2.4483877675
 30
0.0
 11
-8.393365662
 21
-5.5133224693
 31
0.0
  0
LINE
  5
21A
330
1F
100
AcDbEntity
  8
0
  6
Continuous
 62
     7
370
    15
100
AcDbLine
 10
-4.4039739839
 20
-2.0733877675
 30
0.0
 11
-5.0534930367
 21
-2.4483877675
 31
0.0
  0
LINE
  5
21B
330
1F
100
AcDbEntity
  8
0
  6
Continuous
 62
     7
370
    15
100
AcDbLine
 10
-4.0624676329
 20
-2.1648941185
 30
0.0
 11
-4.4039739839
 21
-2.0733877675
 31
0.0
  0
LINE
  5
21C
330
1F
100
AcDbEntity
  8
0
  6
Continuous
 62
     7
370
    15
100
AcDbLine
 10
-3.1952801329
 20
-3.6669069282
 30
0.0
 11
-4.0624676329
 21
-2.1648941185
 31
0.0
  0
LINE
  5
21D
330
1F
100
AcDbEntity
  8
0
  6
Continuous
 62
     7
370
    15
100
AcDbLine
 10
-3.1058257275
 20
51.2410100897
 30
0.0
 11
4.7726362966
 21
52.6301955111
 31
0.0
  0
LINE
  5
21E
330
1F
100
AcDbEntity
  8
0
  6
Continuous
 62
     7
370
    15
100
AcDbLine
 10
-4.3384049613
 20
55.3519290481
 30
0.0
 11
-3.6850536928
 21
51.6465898774
 31
0.0
  0
LINE
  5
21F
330
1F
100
AcDbEntity
  8
0
  6
Continuous
 62
     7
370
    15
100
AcDbLine
 10
3.9456368505
 20
57.3203424348
 30
0.0
 11
-3.9328251736
 21
55.9311570135
 31
0.0
  0
LINE
  5
220
330
1F
100
AcDbEntity
  8
0
  6
Continuous
 62
     7
370
    15
100
AcDbLine
 10
5.1782160843
 20
53.2094234764
 30
0.0
 11
4.5248648158
 21
56.9147626471
 31
0.0
  0
LINE
  5
221
330
1F
100
AcDbEntity
  8
0
  6
Continuous
 62
     7
370
    15
100
AcDbLine
 10
-5.8639197852
 20
-19.9451921997
 30
0.0
 11
-5.8639197852
 21
-21.3188295535
 31
0.0
  0
LINE
  5
222
330
1F
100
AcDbEntity
  8
0
  6
Continuous
 62
     7
370
    15
100
AcDbLine
 10
-11.5399398473
 20
-17.2384830528
 30
0.0
 11
-25.7350094139
 21
7.3480986534
 31
0.0
  0
LINE
  5
223
330
1F
100
AcDbEntity
  8
0
  6
Continuous
 62
     7
370
    15
100
AcDbLine
 10
9.2446698435
 20
7.3480986534
 30
0.0
 11
-4.9503997231
 21
-17.2384830528
 31
0.0
  0
LINE
  5
224
330
1F
100
AcDbEntity
  8
0
  6
Continuous
 62
     7
370
    15
100
AcDbLine
 10
-24.85307776
 20
11.7890673806
 30
0.0
 11
-25.84526526
 21
10.07054822
 31
0.0
  0
LINE
  5
225
330
1F
100
AcDbEntity
  8
0
  6
Continuous
 62
     7
370
    15
100
AcDbLine
 10
-25.84526526
 20
10.07054822
 30
0.0
 11
-24.8055411685
 21
9.4702632359
 31
0.0
  0
LINE
  5
226
330
1F
100
AcDbEntity
  8
0
  6
Continuous
 62
     7
370
    15
100
AcDbLine
 10
-24.4395157647
 20
9.1042378321
 30
0.0
 11
-9.3713318814
 21
-16.9946222315
 31
0.0
  0
LINE
  5
227
330
1F
100
AcDbEntity
  8
0
  6
Continuous
 62
     7
370
    15
100
AcDbLine
 10
-9.2373572852
 20
-17.4946222315
 30
0.0
 11
-9.2373572852
 21
-18.6951921997
 31
0.0
  0
LINE
  5
228
330
1F
100
AcDbEntity
  8
0
  6
Continuous
 62
     7
370
    15
100
AcDbLine
 10
-9.2373572852
 20
-18.6951921997
 30
0.0
 11
-7.2529822852
 21
-18.6951921997
 31
0.0
  0
LINE
  5
229
330
1F
100
AcDbEntity
  8
0
  6
Continuous
 62
     7
370
    15
100
AcDbLine
 10
-7.2529822852
 20
-18.6951921997
 30
0.0
 11
-7.2529822852
 21
-17.4946222315
 31
0.0
  0
LINE
  5
22A
330
1F
100
AcDbEntity
  8
0
  6
Continuous
 62
     7
370
    15
100
AcDbLine
 10
-7.119007689
 20
-16.9946222315
 30
0.0
 11
7.9491761943
 21
9.1042378321
 31
0.0
  0
LINE
  5
22B
330
1F
100
AcDbEntity
  8
0
  6
Continuous
 62
     7
370
    15
100
AcDbLine
 10
8.315201598
 20
9.4702632359
 30
0.0
 11
9.3549256895
 21
10.07054822
 31
0.0
  0
LINE
  5
22C
330
1F
100
AcDbEntity
  8
0
  6
Continuous
 62
     7
370
    15
100
AcDbLine
 10
9.3549256895
 20
10.07054822
 30
0.0
 11
8.3627381895
 21
11.7890673806
 31
0.0
  0
LINE
  5
22D
330
1F
100
AcDbEntity
  8
0
  6
Continuous
 62
     7
370
    15
100
AcDbLine
 10
8.3627381895
 20
11.7890673806
 30
0.0
 11
7.323014098
 21
11.1887823965
 31
0.0
  0
LINE
  5
22E
330
1F
100
AcDbEntity
  8
0
  6
Continuous
 62
     7
370
    15
100
AcDbLine
 10
6.823014098
 20
11.0548078003
 30
0.0
 11
-23.3133536685
 21
11.0548078003
 31
0.0
  0
LINE
  5
22F
330
1F
100
AcDbEntity
  8
0
  6
Continuous
 62
     7
370
    15
100
AcDbLine
 10
-23.8133536685
 20
11.1887823965
 30
0.0
 11
-24.85307776
 21
11.7890673806
 31
0.0
  0
LINE
  5
230
330
1F
100
AcDbEntity
  8
0
  6
Continuous
 62
     7
370
    15
100
AcDbLine
 10
-10.6264197852
 20
-19.9451921997
 30
0.0
 11
-5.8639197852
 21
-19.9451921997
 31
0.0
  0
LINE
  5
231
330
1F
100
AcDbEntity
  8
0
  6
Continuous
 62
     7
370
    15
100
AcDbLine
 10
-10.6264197852
 20
-21.3188295535
 30
0.0
 11
-10.6264197852
 21
-19.9451921997
 31
0.0
  0
LINE
  5
232
330
1F
100
AcDbEntity
  8
0
  6
Continuous
 62
     7
370
    15
100
AcDbLine
 10
-27.6223282647
 20
9.4925848075
 30
0.0
 11
-28.8119331086
 21
10.1794034844
 31
0.0
  0
LINE
  5
233
330
1F
100
AcDbEntity
  8
0
  6
Continuous
 62
     7
370
    15
100
AcDbLine
 10
-25.2410782647
 20
13.6170307931
 30
0.0
 11
-27.6223282647
 21
9.4925848075
 31
0.0
  0
LINE
  5
234
330
1F
100
AcDbEntity
  8
0
  6
Continuous
 62
     7
370
    15
100
AcDbLine
 10
-26.4306831086
 20
14.3038494699
 30
0.0
 11
-25.2410782647
 21
13.6170307931
 31
0.0
  0
LINE
  5
235
330
1F
100
AcDbEntity
  8
0
  6
Continuous
 62
     7
370
    15
100
AcDbLine
 10
8.7507386943
 20
13.6170307931
 30
0.0
 11
9.9403435382
 21
14.3038494699
 31
0.0
  0
LINE
  5
236
330
1F
100
AcDbEntity
  8
0
  6
Continuous
 62
     7
370
    15
100
AcDbLine
 10
11.1319886943
 20
9.4925848075
 30
0.0
 11
8.7507386943
 21
13.6170307931
 31
0.0
  0
LINE
  5
237
330
1F
100
AcDbEntity
  8
0
  6
Continuous
 62
     7
370
    15
100
AcDbLine
 10
12.3215935382
 20
10.1794034844
 30
0.0
 11
11.1319886943
 21
9.4925848075
 31
0.0
  0
LINE
  5
238
330
1F
100
AcDbEntity
  8
0
  6
Continuous
 62
     7
370
    15
100
AcDbLine
 10
-22.4402393518
 20
13.0548078003
 30
0.0
 11
5.9498997814
 21
13.0548078003
 31
0.0
  0
LINE
  5
239
330
1F
100
AcDbEntity
  8
0
  6
Continuous
 62
     7
370
    15
100
AcDbLine
 10
42.7298239621
 20
27.7159136098
 30
0.0
 11
42.8637874908
 21
28.8015479756
 31
0.0
  0
LINE
  5
23A
330
1F
100
AcDbEntity
  8
0
  6
Continuous
 62
     7
370
    15
100
AcDbLine
 10
47.4564742551
 20
27.1326612991
 30
0.0
 11
42.7298239621
 21
27.7159136098
 31
0.0
  0
LINE
  5
23B
330
1F
100
AcDbEntity
  8
0
  6
Continuous
 62
     7
370
    15
100
AcDbLine
 10
47.5904377838
 20
28.218295665
 30
0.0
 11
47.4564742551
 21
27.1326612991
 31
0.0
  0
LINE
  5
23C
330
1F
100
AcDbEntity
  8
0
  6
Continuous
 62
     7
370
    15
100
AcDbLine
 10
60.7192699161
 20
-4.1649723403
 30
0.0
 11
61.5924750917
 21
-4.8238053422
 31
0.0
  0
LINE
  5
23D
330
1F
100
AcDbEntity
  8
0
  6
Continuous
 62
     7
370
    15
100
AcDbLine
 10
57.8508334518
 20
-7.9667454135
 30
0.0
 11
60.7192699161
 21
-4.1649723403
 31
0.0
  0
LINE
  5
23E
330
1F
100
AcDbEntity
  8
0
  6
Continuous
 62
     7
370
    15
100
AcDbLine
 10
58.7240386274
 20
-8.6255784155
 30
0.0
 11
57.8508334518
 21
-7.9667454135
 31
0.0
  0
LINE
  5
23F
330
1F
100
AcDbEntity
  8
0
  6
Continuous
 62
     7
370
    15
100
AcDbLine
 10
24.1148898112
 20
-3.8038465614
 30
0.0
 11
22.8501266271
 21
-4.3398070708
 31
0.0
  0
LINE
  5
240
330
1F
100
AcDbEntity
  8
0
  6
Continuous
 62
     7
370
    15
100
AcDbLine
 10
22.2566759825
 20
0.5811788225
 30
0.0
 11
24.1148898112
 21
-3.8038465614
 31
0.0
  0
LINE
  5
241
330
1F
100
AcDbEntity
  8
0
  6
Continuous
 62
     7
370
    15
100
AcDbLine
 10
21.2495072781
 20
0.1543774586
 30
0.0
 11
22.2566759825
 21
0.5811788225
 31
0.0
  0
LINE
  5
242
330
1F
100
AcDbEntity
  8
0
  6
Continuous
 62
     7
370
    15
100
AcDbLine
 10
25.9178555419
 20
46.5976805008
 30
0.0
 11
28.8000977591
 21
49.0161688823
 31
0.0
  0
LINE
  5
243
330
1F
100
AcDbEntity
  8
0
  6
Continuous
 62
     7
370
    15
100
AcDbLine
 10
28.8617261758
 20
49.7205849087
 30
0.0
 11
23.7194252983
 21
55.8489404536
 31
0.0
  0
LINE
  5
244
330
1F
100
AcDbEntity
  8
0
  6
Continuous
 62
     7
370
    15
100
AcDbLine
 10
20.071138638
 20
52.7876644625
 30
0.0
 11
25.2134395155
 21
46.6593089175
 31
0.0
  0
LINE
  5
245
330
1F
100
AcDbEntity
  8
0
  6
Continuous
 62
     7
370
    15
100
AcDbLine
 10
23.0150092719
 20
55.9105688703
 30
0.0
 11
20.1327670547
 21
53.4920804889
 31
0.0
  0
LINE
  5
246
330
1F
100
AcDbEntity
  8
0
  6
Continuous
 62
     7
370
    15
100
AcDbLine
 10
-23.6710262304
 20
-2.4771192932
 30
0.0
 11
-24.0460262304
 21
-1.8276002404
 31
0.0
  0
LINE
  5
247
330
1F
100
AcDbEntity
  8
0
  6
Continuous
 62
     7
370
    15
100
AcDbLine
 10
-24.0460262304
 20
-1.8276002404
 30
0.0
 11
-25.5480390401
 21
-2.6947877404
 31
0.0
  0
LINE
  5
248
330
1F
100
AcDbEntity
  8
0
  6
Continuous
 62
     7
370
    15
100
AcDbLine
 10
-17.5644443323
 20
-9.0852794013
 30
0.0
 11
-23.6710262304
 21
-2.4771192932
 31
0.0
  0
LINE
  5
249
330
1F
100
AcDbEntity
  8
0
  6
Continuous
 62
     7
370
    15
100
AcDbLine
 10
-17.0644443323
 20
-9.9513048051
 30
0.0
 11
-17.5644443323
 21
-9.0852794013
 31
0.0
  0
LINE
  5
24A
330
1F
100
AcDbEntity
  8
0
  6
Continuous
 62
     7
370
    15
100
AcDbLine
 10
-18.7829634929
 20
-10.9434923051
 30
0.0
 11
-17.0644443323
 21
-9.9513048051
 31
0.0
  0
LINE
  5
24B
330
1F
100
AcDbEntity
  8
0
  6
Continuous
 62
     7
370
    15
100
AcDbLine
 10
-19.0860262304
 20
-10.4185722459
 30
0.0
 11
-18.7829634929
 21
-10.9434923051
 31
0.0
  0
LINE
  5
24C
330
1F
100
AcDbEntity
  8
0
  6
Continuous
 62
     7
370
    15
100
AcDbLine
 10
-19.7355452832
 20
-10.7935722459
 30
0.0
 11
-19.0860262304
 21
-10.4185722459
 31
0.0
  0
LINE
  5
24D
330
1F
100
AcDbEntity
  8
0
  6
Continuous
 62
     7
370
    15
100
AcDbLine
 10
-20.0770516342
 20
-10.702065895
 30
0.0
 11
-19.7355452832
 21
-10.7935722459
 31
0.0
  0
LINE
  5
24E
330
1F
100
AcDbEntity
  8
0
  6
Continuous
 62
     7
370
    15
100
AcDbLine
 10
-22.1996106893
 20
-7.0256857695
 30
0.0
 11
-20.0770516342
 21
-10.702065895
 31
0.0
  0
LINE
  5
24F
330
1F
100
AcDbEntity
  8
0
  6
Continuous
 62
     7
370
    15
100
AcDbLine
 10
-25.264545391
 20
-3.6858131442
 30
0.0
 11
-22.1996106893
 21
-7.0256857695
 31
0.0
  0
LINE
  5
250
330
1F
100
AcDbEntity
  8
0
  6
Continuous
 62
     7
370
    15
100
AcDbLine
 10
-25.639545391
 20
-3.0362940913
 30
0.0
 11
-25.264545391
 21
-3.6858131442
 31
0.0
  0
LINE
  5
251
330
1F
100
AcDbEntity
  8
0
  6
Continuous
 62
     7
370
    15
100
AcDbLine
 10
-25.5480390401
 20
-2.6947877404
 30
0.0
 11
-25.639545391
 21
-3.0362940913
 31
0.0
  0
LINE
  5
252
330
1F
100
AcDbEntity
  8
0
  6
Continuous
 62
     7
370
    15
100
AcDbLine
 10
6.9647757492
 20
53.6755137777
 30
0.0
 11
9.5628519606
 21
52.1755137777
 31
0.0
  0
LINE
  5
253
330
1F
100
AcDbEntity
  8
0
  6
Continuous
 62
     7
370
    15
100
AcDbLine
 10
9.8732693983
 20
59.2131725514
 30
0.0
 11
6.8732693983
 21
54.0170201287
 31
0.0
  0
LINE
  5
254
330
1F
100
AcDbEntity
  8
0
  6
Continuous
 62
     7
370
    15
100
AcDbLine
 10
12.8128519606
 20
57.8046789023
 30
0.0
 11
10.2147757492
 21
59.3046789023
 31
0.0
  0
LINE
  5
255
330
1F
100
AcDbEntity
  8
0
  6
Continuous
 62
     7
370
    15
100
AcDbLine
 10
9.9043583115
 20
52.2670201287
 30
0.0
 11
12.9043583115
 21
57.4631725514
 31
0.0
  0
LINE
  5
256
330
1F
100
AcDbEntity
  8
0
  6
Continuous
 62
     7
370
    15
100
AcDbLine
 10
47.7043405984
 20
3.0126008549
 30
0.0
 11
45.5793405984
 21
-0.6680071112
 31
0.0
  0
LINE
  5
257
330
1F
100
AcDbEntity
  8
0
  6
Continuous
 62
     7
370
    15
100
AcDbLine
 10
43.0213278965
 20
12.8558675946
 30
0.0
 11
47.2713278965
 21
12.8558675946
 31
0.0
  0
LINE
  5
258
330
1F
100
AcDbEntity
  8
0
  6
Continuous
 62
     7
370
    15
100
AcDbLine
 10
42.7713278965
 20
13.1058675946
 30
0.0
 11
42.7713278965
 21
13.9691162486
 31
0.0
  0
LINE
  5
259
330
1F
100
AcDbEntity
  8
0
  6
Continuous
 62
     7
370
    15
100
AcDbLine
 10
37.5996945266
 20
-1.1666187363
 30
0.0
 11
39.7979178313
 21
-4.9740531865
 31
0.0
  0
LINE
  5
25A
330
1F
100
AcDbEntity
  8
0
  6
Continuous
 62
     7
370
    15
100
AcDbLine
 10
33.6242135794
 20
7.2191162487
 30
0.0
 11
34.3718088436
 21
7.6507405757
 31
0.0
  0
LINE
  5
25B
330
1F
100
AcDbEntity
  8
0
  6
Continuous
 62
     7
370
    15
100
AcDbLine
 10
52.5320628815
 20
5.4214665178
 30
0.0
 11
51.7844676173
 21
5.8530908449
 31
0.0
  0
LINE
  5
25C
330
1F
100
AcDbEntity
  8
0
  6
Continuous
 62
     7
370
    15
100
AcDbLine
 10
39.8228929369
 20
-5.1637579477
 30
0.0
 11
39.5104707125
 21
-6.3297335628
 31
0.0
  0
LINE
  5
25D
330
1F
100
AcDbEntity
  8
0
  6
Continuous
 62
     7
370
    15
100
AcDbLine
 10
46.4184422135
 20
-1.4411377892
 30
0.0
 11
45.6708469493
 21
-1.0095134622
 31
0.0
  0
LINE
  5
25E
330
1F
100
AcDbEntity
  8
0
  6
Continuous
 62
     7
370
    15
100
AcDbLine
 10
48.8849485644
 20
2.3309765278
 30
0.0
 11
46.7599485644
 21
-1.3496314382
 31
0.0
  0
LINE
  5
25F
330
1F
100
AcDbEntity
  8
0
  6
Continuous
 62
     7
370
    15
100
AcDbLine
 10
48.0458469493
 20
3.1041072058
 30
0.0
 11
48.7934422135
 21
2.6724828788
 31
0.0
  0
LINE
  5
260
330
1F
100
AcDbEntity
  8
0
  6
Continuous
 62
     7
370
    15
100
AcDbLine
 10
51.6929612663
 20
6.1945971958
 30
0.0
 11
53.891184571
 21
10.0020316459
 31
0.0
  0
LINE
  5
261
330
1F
100
AcDbEntity
  8
0
  6
Continuous
 62
     7
370
    15
100
AcDbLine
 10
54.0429861607
 20
10.1185131025
 30
0.0
 11
55.2089617757
 21
10.430935327
 31
0.0
  0
LINE
  5
262
330
1F
100
AcDbEntity
  8
0
  6
Continuous
 62
     7
370
    15
100
AcDbLine
 10
55.398666537
 20
10.4059602213
 30
0.0
 11
55.4936654218
 21
10.3511125896
 31
0.0
  0
LINE
  5
263
330
1F
100
AcDbEntity
  8
0
  6
Continuous
 62
     7
370
    15
100
AcDbLine
 10
55.5485692324
 20
10.146208779
 30
0.0
 11
52.8735692324
 21
5.5129728688
 31
0.0
  0
LINE
  5
264
330
1F
100
AcDbEntity
  8
0
  6
Continuous
 62
     7
370
    15
100
AcDbLine
 10
50.5727707379
 20
10.9808675946
 30
0.0
 11
42.7378342474
 21
-2.5896404811
 31
0.0
  0
LINE
  5
265
330
1F
100
AcDbEntity
  8
0
  6
Continuous
 62
     7
370
    15
100
AcDbLine
 10
42.3048215455
 20
-2.5896404811
 30
0.0
 11
34.469885055
 21
10.9808675946
 31
0.0
  0
LINE
  5
266
330
1F
100
AcDbEntity
  8
0
  6
Continuous
 62
     7
370
    15
100
AcDbLine
 10
49.3849485644
 20
3.1970019316
 30
0.0
 11
51.5099485644
 21
6.8776098977
 31
0.0
  0
LINE
  5
267
330
1F
100
AcDbEntity
  8
0
  6
Continuous
 62
     7
370
    15
100
AcDbLine
 10
50.3293405984
 20
7.5592342247
 30
0.0
 11
48.2043405984
 21
3.8786262586
 31
0.0
  0
LINE
  5
268
330
1F
100
AcDbEntity
  8
0
  6
Continuous
 62
     7
370
    15
100
AcDbLine
 10
45.5321850804
 20
-6.3297335628
 30
0.0
 11
45.219762856
 21
-5.1637579478
 31
0.0
  0
LINE
  5
269
330
1F
100
AcDbEntity
  8
0
  6
Continuous
 62
     7
370
    15
100
AcDbLine
 10
48.5320628815
 20
-1.5067367124
 30
0.0
 11
47.7844676173
 21
-1.0751123854
 31
0.0
  0
LINE
  5
26A
330
1F
100
AcDbEntity
  8
0
  6
Continuous
 62
     7
370
    15
100
AcDbLine
 10
48.6235692324
 20
-1.8482430634
 30
0.0
 11
45.9485692324
 21
-6.4814789736
 31
0.0
  0
LINE
  5
26B
330
1F
100
AcDbEntity
  8
0
  6
Continuous
 62
     7
370
    15
100
AcDbLine
 10
35.6577072285
 20
3.1970019316
 30
0.0
 11
33.5327072285
 21
6.8776098977
 31
0.0
  0
LINE
  5
26C
330
1F
100
AcDbEntity
  8
0
  6
Continuous
 62
     7
370
    15
100
AcDbLine
 10
42.2713278965
 20
13.1058675946
 30
0.0
 11
42.2713278965
 21
13.9691162486
 31
0.0
  0
LINE
  5
26D
330
1F
100
AcDbEntity
  8
0
  6
Continuous
 62
     7
370
    15
100
AcDbLine
 10
43.0213278965
 20
14.2191162486
 30
0.0
 11
47.2713278965
 21
14.2191162486
 31
0.0
  0
LINE
  5
26E
330
1F
100
AcDbEntity
  8
0
  6
Continuous
 62
     7
370
    15
100
AcDbLine
 10
47.5213278965
 20
13.9691162486
 30
0.0
 11
47.5213278965
 21
13.1058675946
 31
0.0
  0
LINE
  5
26F
330
1F
100
AcDbEntity
  8
0
  6
Continuous
 62
     7
370
    15
100
AcDbLine
 10
38.6242135794
 20
-1.4411377892
 30
0.0
 11
39.3718088436
 21
-1.0095134622
 31
0.0
  0
LINE
  5
270
330
1F
100
AcDbEntity
  8
0
  6
Continuous
 62
     7
370
    15
100
AcDbLine
 10
29.6439892559
 20
10.4059602213
 30
0.0
 11
29.5489903711
 21
10.3511125896
 31
0.0
  0
LINE
  5
271
330
1F
100
AcDbEntity
  8
0
  6
Continuous
 62
     7
370
    15
100
AcDbLine
 10
37.7713278965
 20
12.8558675946
 30
0.0
 11
42.0213278965
 21
12.8558675946
 31
0.0
  0
LINE
  5
272
330
1F
100
AcDbEntity
  8
0
  6
Continuous
 62
     7
370
    15
100
AcDbLine
 10
36.5105929115
 20
-1.5067367124
 30
0.0
 11
37.2581881756
 21
-1.0751123854
 31
0.0
  0
LINE
  5
273
330
1F
100
AcDbEntity
  8
0
  6
Continuous
 62
     7
370
    15
100
AcDbLine
 10
36.7468088436
 20
3.5371199077
 30
0.0
 11
35.9992135794
 21
3.1054955807
 31
0.0
  0
LINE
  5
274
330
1F
100
AcDbEntity
  8
0
  6
Continuous
 62
     7
370
    15
100
AcDbLine
 10
39.4633151946
 20
-0.6680071112
 30
0.0
 11
37.3383151946
 21
3.0126008549
 31
0.0
  0
LINE
  5
275
330
1F
100
AcDbEntity
  8
0
  6
Continuous
 62
     7
370
    15
100
AcDbLine
 10
34.6863914059
 20
11.3558675946
 30
0.0
 11
50.356264387
 21
11.3558675946
 31
0.0
  0
LINE
  5
276
330
1F
100
AcDbEntity
  8
0
  6
Continuous
 62
     7
370
    15
100
AcDbLine
 10
29.8336940172
 20
10.430935327
 30
0.0
 11
30.9996696322
 21
10.1185131025
 31
0.0
  0
LINE
  5
277
330
1F
100
AcDbEntity
  8
0
  6
Continuous
 62
     7
370
    15
100
AcDbLine
 10
48.7820628815
 20
-1.0737240105
 30
0.0
 11
48.0344676173
 21
-0.6420996835
 31
0.0
  0
LINE
  5
278
330
1F
100
AcDbEntity
  8
0
  6
Continuous
 62
     7
370
    15
100
AcDbLine
 10
33.3496945266
 20
6.1945971958
 30
0.0
 11
31.1514712219
 21
10.002031646
 31
0.0
  0
LINE
  5
279
330
1F
100
AcDbEntity
  8
0
  6
Continuous
 62
     7
370
    15
100
AcDbLine
 10
37.368262376
 20
-6.4922638011
 30
0.0
 11
28.6218345337
 21
8.6569936065
 31
0.0
  0
LINE
  5
27A
330
1F
100
AcDbEntity
  8
0
  6
Continuous
 62
     7
370
    15
100
AcDbLine
 10
33.7749000542
 20
17.5823649027
 30
0.0
 11
51.2677557387
 21
17.5823649027
 31
0.0
  0
LINE
  5
27B
330
1F
100
AcDbEntity
  8
0
  6
Continuous
 62
     7
370
    15
100
AcDbLine
 10
39.0940865605
 20
-6.4814789736
 30
0.0
 11
36.4190865605
 21
-1.8482430634
 31
0.0
  0
LINE
  5
27C
330
1F
100
AcDbEntity
  8
0
  6
Continuous
 62
     7
370
    15
100
AcDbLine
 10
56.4208212592
 20
8.6569936065
 30
0.0
 11
47.674393417
 21
-6.4922638011
 31
0.0
  0
LINE
  5
27D
330
1F
100
AcDbEntity
  8
0
  6
Continuous
 62
     7
370
    15
100
AcDbLine
 10
46.0213278965
 20
15.8323649027
 30
0.0
 11
46.0213278965
 21
14.9691162486
 31
0.0
  0
LINE
  5
27E
330
1F
100
AcDbEntity
  8
0
  6
Continuous
 62
     7
370
    15
100
AcDbLine
 10
36.1577072285
 20
2.3309765278
 30
0.0
 11
38.2827072285
 21
-1.3496314382
 31
0.0
  0
LINE
  5
27F
330
1F
100
AcDbEntity
  8
0
  6
Continuous
 62
     7
370
    15
100
AcDbLine
 10
39.0213278965
 20
15.8323649027
 30
0.0
 11
39.0213278965
 21
14.9691162486
 31
0.0
  0
LINE
  5
280
330
1F
100
AcDbEntity
  8
0
  6
Continuous
 62
     7
370
    15
100
AcDbLine
 10
48.2958469493
 20
3.5371199077
 30
0.0
 11
49.0434422135
 21
3.1054955807
 31
0.0
  0
LINE
  5
281
330
1F
100
AcDbEntity
  8
0
  6
Continuous
 62
     7
370
    15
100
AcDbLine
 10
39.2713278965
 20
16.0823649027
 30
0.0
 11
45.7713278965
 21
16.0823649027
 31
0.0
  0
LINE
  5
282
330
1F
100
AcDbEntity
  8
0
  6
Continuous
 62
     7
370
    15
100
AcDbLine
 10
52.2713278965
 20
15.8226696392
 30
0.0
 11
52.2713278965
 21
15.9323649027
 31
0.0
  0
LINE
  5
283
330
1F
100
AcDbEntity
  8
0
  6
Continuous
 62
     7
370
    15
100
AcDbLine
 10
52.1981045918
 20
15.6458929439
 30
0.0
 11
51.3445512012
 21
14.7923395534
 31
0.0
  0
LINE
  5
284
330
1F
100
AcDbEntity
  8
0
  6
Continuous
 62
     7
370
    15
100
AcDbLine
 10
47.4429612663
 20
-1.1666187364
 30
0.0
 11
45.2447379616
 21
-4.9740531865
 31
0.0
  0
LINE
  5
285
330
1F
100
AcDbEntity
  8
0
  6
Continuous
 62
     7
370
    15
100
AcDbLine
 10
46.5213278965
 20
15.8323649027
 30
0.0
 11
46.5213278965
 21
14.9691162486
 31
0.0
  0
LINE
  5
286
330
1F
100
AcDbEntity
  8
0
  6
Continuous
 62
     7
370
    15
100
AcDbLine
 10
46.7713278965
 20
16.0823649027
 30
0.0
 11
52.1213278965
 21
16.0823649027
 31
0.0
  0
LINE
  5
287
330
1F
100
AcDbEntity
  8
0
  6
Continuous
 62
     7
370
    15
100
AcDbLine
 10
36.8383151946
 20
3.8786262587
 30
0.0
 11
34.7133151946
 21
7.5592342247
 31
0.0
  0
LINE
  5
288
330
1F
100
AcDbEntity
  8
0
  6
Continuous
 62
     7
370
    15
100
AcDbLine
 10
37.5213278965
 20
13.9691162486
 30
0.0
 11
37.5213278965
 21
13.1058675946
 31
0.0
  0
LINE
  5
289
330
1F
100
AcDbEntity
  8
0
  6
Continuous
 62
     7
370
    15
100
AcDbLine
 10
33.6981045918
 20
14.7923395534
 30
0.0
 11
32.8445512012
 21
15.6458929439
 31
0.0
  0
LINE
  5
28A
330
1F
100
AcDbEntity
  8
0
  6
Continuous
 62
     7
370
    15
100
AcDbLine
 10
32.7713278965
 20
15.8226696392
 30
0.0
 11
32.7713278965
 21
15.9323649027
 31
0.0
  0
LINE
  5
28B
330
1F
100
AcDbEntity
  8
0
  6
Continuous
 62
     7
370
    15
100
AcDbLine
 10
35.9190865605
 20
-0.9822176596
 30
0.0
 11
32.6690865605
 21
4.646947465
 31
0.0
  0
LINE
  5
28C
330
1F
100
AcDbEntity
  8
0
  6
Continuous
 62
     7
370
    15
100
AcDbLine
 10
39.2713278965
 20
14.7191162486
 30
0.0
 11
45.7713278965
 21
14.7191162486
 31
0.0
  0
LINE
  5
28D
330
1F
100
AcDbEntity
  8
0
  6
Continuous
 62
     7
370
    15
100
AcDbLine
 10
36.9968088436
 20
3.1041072058
 30
0.0
 11
36.2492135794
 21
2.6724828788
 31
0.0
  0
LINE
  5
28E
330
1F
100
AcDbEntity
  8
0
  6
Continuous
 62
     7
370
    15
100
AcDbLine
 10
33.2581881756
 20
5.8530908449
 30
0.0
 11
32.5105929114
 21
5.4214665179
 31
0.0
  0
LINE
  5
28F
330
1F
100
AcDbEntity
  8
0
  6
Continuous
 62
     7
370
    15
100
AcDbLine
 10
32.1690865605
 20
5.5129728688
 30
0.0
 11
29.4940865605
 21
10.146208779
 31
0.0
  0
LINE
  5
290
330
1F
100
AcDbEntity
  8
0
  6
Continuous
 62
   144
370
     0
100
AcDbLine
 10
39.3939892559
 20
-6.4815351525
 30
0.0
 11
39.2989903711
 21
-6.5363827842
 31
0.0
  0
LINE
  5
291
330
1F
100
AcDbEntity
  8
0
  6
Continuous
 62
     7
370
    15
100
AcDbLine
 10
46.7713278965
 20
14.7191162486
 30
0.0
 11
51.1677745059
 21
14.7191162486
 31
0.0
  0
LINE
  5
292
330
1F
100
AcDbEntity
  8
0
  6
Continuous
 62
     7
370
    15
100
AcDbLine
 10
42.0213278965
 20
14.2191162486
 30
0.0
 11
37.7713278965
 21
14.2191162486
 31
0.0
  0
LINE
  5
293
330
1F
100
AcDbEntity
  8
0
  6
Continuous
 62
     7
370
    15
100
AcDbLine
 10
51.4184422135
 20
7.2191162487
 30
0.0
 11
50.6708469493
 21
7.6507405757
 31
0.0
  0
LINE
  5
294
330
1F
100
AcDbEntity
  8
0
  6
Continuous
 62
   144
370
     0
100
AcDbLine
 10
45.648666537
 20
-6.4815351525
 30
0.0
 11
45.7436654218
 21
-6.5363827842
 31
0.0
  0
LINE
  5
295
330
1F
100
AcDbEntity
  8
0
  6
Continuous
 62
     7
370
    15
100
AcDbLine
 10
37.0996945266
 20
-0.3005933326
 30
0.0
 11
33.8496945266
 21
5.328571792
 31
0.0
  0
LINE
  5
296
330
1F
100
AcDbEntity
  8
0
  6
Continuous
 62
     7
370
    15
100
AcDbLine
 10
32.7605929114
 20
4.988453816
 30
0.0
 11
33.5081881756
 21
5.420078143
 31
0.0
  0
LINE
  5
297
330
1F
100
AcDbEntity
  8
0
  6
Continuous
 62
     7
370
    15
100
AcDbLine
 10
36.2605929115
 20
-1.0737240105
 30
0.0
 11
37.0081881756
 21
-0.6420996835
 31
0.0
  0
LINE
  5
298
330
1F
100
AcDbEntity
  8
0
  6
Continuous
 62
     7
370
    15
100
AcDbLine
 10
32.9213278965
 20
16.0823649027
 30
0.0
 11
38.2713278965
 21
16.0823649027
 31
0.0
  0
LINE
  5
299
330
1F
100
AcDbEntity
  8
0
  6
Continuous
 62
     7
370
    15
100
AcDbLine
 10
38.2713278965
 20
14.7191162486
 30
0.0
 11
33.8748812871
 21
14.7191162486
 31
0.0
  0
LINE
  5
29A
330
1F
100
AcDbEntity
  8
0
  6
Continuous
 62
     7
370
    15
100
AcDbLine
 10
38.5213278965
 20
15.8323649027
 30
0.0
 11
38.5213278965
 21
14.9691162486
 31
0.0
  0
LINE
  5
29B
330
1F
100
AcDbEntity
  8
0
  6
Continuous
 62
     7
370
    15
100
AcDbLine
 10
51.1929612663
 20
5.328571792
 30
0.0
 11
47.9429612663
 21
-0.3005933326
 31
0.0
  0
LINE
  5
29C
330
1F
100
AcDbEntity
  8
0
  6
Continuous
 62
     7
370
    15
100
AcDbLine
 10
52.3735692324
 20
4.646947465
 30
0.0
 11
49.1235692324
 21
-0.9822176596
 31
0.0
  0
LINE
  5
29D
330
1F
100
AcDbEntity
  8
0
  6
Continuous
 62
     7
370
    15
100
AcDbLine
 10
52.2820628815
 20
4.9884538159
 30
0.0
 11
51.5344676173
 21
5.420078143
 31
0.0
  0
LINE
  5
29E
330
1F
100
AcDbEntity
  8
0
  6
Continuous
 62
     7
370
    15
100
AcDbLine
 10
-0.5561032928
 20
40.9684381257
 30
0.0
 11
2.9794901929
 21
39.6815873364
 31
0.0
  0
LINE
  5
29F
330
1F
100
AcDbEntity
  8
0
  6
Continuous
 62
     7
370
    15
100
AcDbLine
 10
3.620346575
 20
39.9804235752
 30
0.0
 11
6.3565077216
 21
47.4979645415
 31
0.0
  0
LINE
  5
2A0
330
1F
100
AcDbEntity
  8
0
  6
Continuous
 62
     7
370
    15
100
AcDbLine
 10
1.8812216151
 20
49.126835474
 30
0.0
 11
-0.8549395315
 21
41.6092945078
 31
0.0
  0
LINE
  5
2A1
330
1F
100
AcDbEntity
  8
0
  6
Continuous
 62
     7
370
    15
100
AcDbLine
 10
6.0576714828
 20
48.1388209235
 30
0.0
 11
2.5220779971
 21
49.4256717128
 31
0.0
  0
ARC
  5
2A2
330
1F
100
AcDbEntity
  8
0
  6
Continuous
 62
     7
370
    15
100
AcDbCircle
 10
6.6999987447
 20
38.4805596982
 30
0.0
 40
0.5000000000000133
100
AcDbArc
 50
170.0
 51
260.0
  0
ARC
  5
2A3
330
1F
100
AcDbEntity
  8
0
  6
Continuous
 62
     7
370
    15
100
AcDbCircle
 10
7.3533500132
 20
42.1858988689
 30
0.0
 40
0.5000000000000051
100
AcDbArc
 50
80.0
 51
170.0
  0
ARC
  5
2A4
330
1F
100
AcDbEntity
  8
0
  6
Continuous
 62
     7
370
    15
100
AcDbCircle
 10
15.2318120373
 20
40.7967134476
 30
0.0
 40
0.4999999999999978
100
AcDbArc
 50
350.0
 51
80.0
  0
ARC
  5
2A5
330
1F
100
AcDbEntity
  8
0
  6
Continuous
 62
     7
370
    15
100
AcDbCircle
 10
14.5784607688
 20
37.0913742769
 30
0.0
 40
0.5000000000000038
100
AcDbArc
 50
260.0
 51
350.0
  0
ARC
  5
2A6
330
1F
100
AcDbEntity
  8
0
  6
Continuous
 62
     7
370
    15
100
AcDbCircle
 10
20.3562830783
 20
68.1043596778
 30
0.0
 40
0.2499999999999908
100
AcDbArc
 50
160.0
 51
242.1437418797
  0
ARC
  5
2A7
330
1F
100
AcDbEntity
  8
0
  6
Continuous
 62
     7
370
    15
100
AcDbCircle
 10
20.0553294339
 20
69.4703496354
 30
0.0
 40
0.500000000000012
100
AcDbArc
 50
340.0
 51
70.0
  0
ARC
  5
2A8
330
1F
100
AcDbEntity
  8
0
  6
Continuous
 62
     7
370
    15
100
AcDbCircle
 10
16.5197359482
 20
70.7572004247
 30
0.0
 40
0.5000000000000087
100
AcDbArc
 50
70.0
 51
160.0
  0
ARC
  5
2A9
330
1F
100
AcDbEntity
  8
0
  6
Continuous
 62
     7
370
    15
100
AcDbCircle
 10
15.4111506614
 20
69.904240682
 30
0.0
 40
0.2499999999999729
100
AcDbArc
 50
257.8562581203
 51
340.0
  0
ARC
  5
2AA
330
1F
100
AcDbEntity
  8
0
  6
Continuous
 62
     7
370
    15
100
AcDbCircle
 10
11.3616247887
 20
51.0849994591
 30
0.0
 40
19.00000000000047
100
AcDbArc
 50
77.8562581203
 51
102.1437418797
  0
ARC
  5
2AB
330
1F
100
AcDbEntity
  8
0
  6
Continuous
 62
     7
370
    15
100
AcDbCircle
 10
7.3120989159
 20
69.904240682
 30
0.0
 40
0.2499999999999539
100
AcDbArc
 50
200.0
 51
282.1437418797
  0
ARC
  5
2AC
330
1F
100
AcDbEntity
  8
0
  6
Continuous
 62
     7
370
    15
100
AcDbCircle
 10
6.2035136292
 20
70.7572004247
 30
0.0
 40
0.4999999999999911
100
AcDbArc
 50
20.0
 51
110.0
  0
ARC
  5
2AD
330
1F
100
AcDbEntity
  8
0
  6
Continuous
 62
     7
370
    15
100
AcDbCircle
 10
2.6679201435
 20
69.4703496354
 30
0.0
 40
0.5000000000000525
100
AcDbArc
 50
110.0
 51
200.0
  0
ARC
  5
2AE
330
1F
100
AcDbEntity
  8
0
  6
Continuous
 62
     7
370
    15
100
AcDbCircle
 10
2.366966499
 20
68.1043596778
 30
0.0
 40
0.2499999999999929
100
AcDbArc
 50
297.8562581203
 51
20.0
  0
ARC
  5
2AF
330
1F
100
AcDbEntity
  8
0
  6
Continuous
 62
     7
370
    15
100
AcDbCircle
 10
11.3616247887
 20
51.0849994591
 30
0.0
 40
18.99999999999998
100
AcDbArc
 50
117.8562581203
 51
182.1437418797
  0
ARC
  5
2B0
330
1F
100
AcDbEntity
  8
0
  6
Continuous
 62
     7
370
    15
100
AcDbCircle
 10
-7.8749026617
 20
50.364921927
 30
0.0
 40
0.2500000000000063
100
AcDbArc
 50
280.0
 51
2.1437418797
  0
ARC
  5
2B1
330
1F
100
AcDbEntity
  8
0
  6
Continuous
 62
     7
370
    15
100
AcDbCircle
 10
-8.9074078441
 20
49.4212934467
 30
0.0
 40
0.4999999999999967
100
AcDbArc
 50
100.0
 51
190.0
  0
ARC
  5
2B2
330
1F
100
AcDbEntity
  8
0
  6
Continuous
 62
     7
370
    15
100
AcDbCircle
 10
-8.2540565756
 20
45.715954276
 30
0.0
 40
0.4999999999999955
100
AcDbArc
 50
190.0
 51
280.0
  0
ARC
  5
2B3
330
1F
100
AcDbEntity
  8
0
  6
Continuous
 62
     7
370
    15
100
AcDbCircle
 10
-6.9610791267
 20
45.1823711268
 30
0.0
 40
0.2499999999999937
100
AcDbArc
 50
17.8562581203
 51
100.0
  0
ARC
  5
2B4
330
1F
100
AcDbEntity
  8
0
  6
Continuous
 62
     7
370
    15
100
AcDbCircle
 10
11.3616247887
 20
51.0849994591
 30
0.0
 40
19.00000000000006
100
AcDbArc
 50
197.8562581203
 51
222.1437418797
  0
ARC
  5
2B5
330
1F
100
AcDbEntity
  8
0
  6
Continuous
 62
     7
370
    15
100
AcDbCircle
 10
-2.9115532539
 20
38.1683865686
 30
0.0
 40
0.2499999999999963
100
AcDbArc
 50
320.0
 51
42.1437418797
  0
ARC
  5
2B6
330
1F
100
AcDbEntity
  8
0
  6
Continuous
 62
     7
370
    15
100
AcDbCircle
 10
-3.0959454161
 20
36.7818436767
 30
0.0
 40
0.5000000000000034
100
AcDbArc
 50
140.0
 51
230.0
  0
ARC
  5
2B7
330
1F
100
AcDbEntity
  8
0
  6
Continuous
 62
     7
370
    15
100
AcDbCircle
 10
-0.2137031989
 20
34.3633552953
 30
0.0
 40
0.5000000000000044
100
AcDbArc
 50
230.0
 51
320.0
  0
ARC
  5
2B8
330
1F
100
AcDbEntity
  8
0
  6
Continuous
 62
     7
370
    15
100
AcDbCircle
 10
1.119755628
 20
34.7857167726
 30
0.0
 40
0.2499999999999956
100
AcDbArc
 50
57.8562581203
 51
140.0
  0
ARC
  5
2B9
330
1F
100
AcDbEntity
  8
0
  6
Continuous
 62
     7
370
    15
100
AcDbCircle
 10
11.3616247887
 20
51.0849994591
 30
0.0
 40
18.99999999999997
100
AcDbArc
 50
237.8562581203
 51
302.1437418797
  0
ARC
  5
2BA
330
1F
100
AcDbEntity
  8
0
  6
Continuous
 62
     7
370
    15
100
AcDbCircle
 10
21.6034939493
 20
34.7857167726
 30
0.0
 40
0.2499999999999937
100
AcDbArc
 50
40.0
 51
122.1437418797
  0
ARC
  5
2BB
330
1F
100
AcDbEntity
  8
0
  6
Continuous
 62
     7
370
    15
100
AcDbCircle
 10
22.9369527762
 20
34.3633552953
 30
0.0
 40
0.5000000000000057
100
AcDbArc
 50
220.0
 51
310.0
  0
ARC
  5
2BC
330
1F
100
AcDbEntity
  8
0
  6
Continuous
 62
     7
370
    15
100
AcDbCircle
 10
25.8191949934
 20
36.7818436767
 30
0.0
 40
0.5000000000000066
100
AcDbArc
 50
310.0
 51
40.0
  0
ARC
  5
2BD
330
1F
100
AcDbEntity
  8
0
  6
Continuous
 62
     7
370
    15
100
AcDbCircle
 10
25.6348028313
 20
38.1683865686
 30
0.0
 40
0.2500000000000154
100
AcDbArc
 50
137.8562581203
 51
220.0
  0
ARC
  5
2BE
330
1F
100
AcDbEntity
  8
0
  6
Continuous
 62
     7
370
    15
100
AcDbCircle
 10
11.3616247887
 20
51.0849994591
 30
0.0
 40
18.99999999999998
100
AcDbArc
 50
317.8562581203
 51
342.1437418797
  0
ARC
  5
2BF
330
1F
100
AcDbEntity
  8
0
  6
Continuous
 62
     7
370
    15
100
AcDbCircle
 10
29.684328704
 20
45.1823711268
 30
0.0
 40
0.2499999999999876
100
AcDbArc
 50
80.0
 51
162.1437418797
  0
ARC
  5
2C0
330
1F
100
AcDbEntity
  8
0
  6
Continuous
 62
     7
370
    15
100
AcDbCircle
 10
30.9773061529
 20
45.715954276
 30
0.0
 40
0.5000000000000105
100
AcDbArc
 50
260.0
 51
350.0
  0
ARC
  5
2C1
330
1F
100
AcDbEntity
  8
0
  6
Continuous
 62
     7
370
    15
100
AcDbCircle
 10
31.6306574214
 20
49.4212934467
 30
0.0
 40
0.5000000000000175
100
AcDbArc
 50
350.0
 51
80.0
  0
ARC
  5
2C2
330
1F
100
AcDbEntity
  8
0
  6
Continuous
 62
     7
370
    15
100
AcDbCircle
 10
30.598152239
 20
50.364921927
 30
0.0
 40
0.2500000000000147
100
AcDbArc
 50
177.8562581203
 51
260.0
  0
ARC
  5
2C3
330
1F
100
AcDbEntity
  8
0
  6
Continuous
 62
     7
370
    15
100
AcDbCircle
 10
11.3616247887
 20
51.0849994591
 30
0.0
 40
18.99999999999994
100
AcDbArc
 50
357.8562581203
 51
62.1437418797
  0
ARC
  5
2C4
330
1F
100
AcDbEntity
  8
0
  6
Continuous
 62
     7
370
    15
100
AcDbCircle
 10
6.852101543
 20
62.8533533569
 30
0.0
 40
0.25
100
AcDbArc
 50
0.0
 51
90.0
  0
ARC
  5
2C5
330
1F
100
AcDbEntity
  8
0
  6
Continuous
 62
     7
370
    15
100
AcDbCircle
 10
6.852101543
 20
59.8533533569
 30
0.0
 40
0.2500000000000009
100
AcDbArc
 50
270.0
 51
0.0
  0
ARC
  5
2C6
330
1F
100
AcDbEntity
  8
0
  6
Continuous
 62
     7
370
    15
100
AcDbCircle
 10
0.852101543
 20
59.8533533569
 30
0.0
 40
0.2500000000000071
100
AcDbArc
 50
180.0
 51
270.0
  0
ARC
  5
2C7
330
1F
100
AcDbEntity
  8
0
  6
Continuous
 62
     7
370
    15
100
AcDbCircle
 10
0.852101543
 20
62.8533533569
 30
0.0
 40
0.2500000000000019
100
AcDbArc
 50
90.0
 51
180.0
  0
ARC
  5
2C8
330
1F
100
AcDbEntity
  8
0
  6
Continuous
 62
     7
370
    15
100
AcDbCircle
 10
-8.48391596
 20
6.2460113259
 30
0.0
 40
0.2499999999999987
100
AcDbArc
 50
330.0
 51
90.0
  0
ARC
  5
2C9
330
1F
100
AcDbEntity
  8
0
  6
Continuous
 62
     7
370
    15
100
AcDbCircle
 10
-12.8547508354
 20
-1.3244967498
 30
0.0
 40
0.2500000000000031
100
AcDbArc
 50
210.0
 51
330.0
  0
ARC
  5
2CA
330
1F
100
AcDbEntity
  8
0
  6
Continuous
 62
     7
370
    15
100
AcDbCircle
 10
-17.2255857108
 20
6.2460113259
 30
0.0
 40
0.2500000000000047
100
AcDbArc
 50
90.0
 51
210.0
  0
ARC
  5
2CB
330
1F
100
AcDbEntity
  8
0
  6
Continuous
 62
     7
370
    15
100
AcDbCircle
 10
20.45122162
 20
46.9768817273
 30
0.0
 40
0.500000000000012
100
AcDbArc
 50
20.0
 51
110.0
  0
ARC
  5
2CC
330
1F
100
AcDbEntity
  8
0
  6
Continuous
 62
     7
370
    15
100
AcDbCircle
 10
23.1873827666
 20
39.459340761
 30
0.0
 40
0.5000000000000059
100
AcDbArc
 50
290.0
 51
20.0
  0
ARC
  5
2CD
330
1F
100
AcDbEntity
  8
0
  6
Continuous
 62
     7
370
    15
100
AcDbCircle
 10
19.6517892809
 20
38.1724899718
 30
0.0
 40
0.4999999999999871
100
AcDbArc
 50
200.0
 51
290.0
  0
ARC
  5
2CE
330
1F
100
AcDbEntity
  8
0
  6
Continuous
 62
     7
370
    15
100
AcDbCircle
 10
16.9156281343
 20
45.6900309381
 30
0.0
 40
0.500000000000009
100
AcDbArc
 50
110.0
 51
200.0
  0
ARC
  5
2CF
330
1F
100
AcDbEntity
  8
0
  6
Continuous
 62
     7
370
    15
100
AcDbCircle
 10
11.9142983693
 20
44.6751191821
 30
0.0
 40
0.5000000000000051
100
AcDbArc
 50
230.0
 51
320.0
  0
ARC
  5
2D0
330
1F
100
AcDbEntity
  8
0
  6
Continuous
 62
     7
370
    15
100
AcDbCircle
 10
9.032056152
 20
47.0936075635
 30
0.0
 40
0.5000000000000085
100
AcDbArc
 50
140.0
 51
230.0
  0
ARC
  5
2D1
330
1F
100
AcDbEntity
  8
0
  6
Continuous
 62
     7
370
    15
100
AcDbCircle
 10
17.0565992467
 20
50.803474727
 30
0.0
 40
0.5000000000000066
100
AcDbArc
 50
320.0
 51
50.0
  0
ARC
  5
2D2
330
1F
100
AcDbEntity
  8
0
  6
Continuous
 62
     7
370
    15
100
AcDbCircle
 10
14.1743570295
 20
53.2219631085
 30
0.0
 40
0.4999999999999928
100
AcDbArc
 50
50.0
 51
140.0
  0
ARC
  5
2D3
330
1F
100
AcDbEntity
  8
0
  6
Continuous
 62
     7
370
    15
100
AcDbCircle
 10
18.1130754687
 20
55.2653033226
 30
0.0
 40
0.2499999999999928
100
AcDbArc
 50
210.0
 51
300.0
  0
ARC
  5
2D4
330
1F
100
AcDbEntity
  8
0
  6
Continuous
 62
     7
370
    15
100
AcDbCircle
 10
15.1130754687
 20
60.4614557453
 30
0.0
 40
0.2500000000000128
100
AcDbArc
 50
120.0
 51
210.0
  0
ARC
  5
2D5
330
1F
100
AcDbEntity
  8
0
  6
Continuous
 62
     7
370
    15
100
AcDbCircle
 10
17.7111516801
 20
61.9614557453
 30
0.0
 40
0.2500000000000021
100
AcDbArc
 50
30.0
 51
120.0
  0
ARC
  5
2D6
330
1F
100
AcDbEntity
  8
0
  6
Continuous
 62
     7
370
    15
100
AcDbCircle
 10
20.7111516801
 20
56.7653033226
 30
0.0
 40
0.2500000000000021
100
AcDbArc
 50
300.0
 51
30.0
  0
ARC
  5
2D7
330
1F
100
AcDbEntity
  8
0
  6
Continuous
 62
     7
370
    15
100
AcDbCircle
 10
-3.1926498163
 20
51.7334139663
 30
0.0
 40
0.4999999999999944
100
AcDbArc
 50
190.0
 51
280.0
  0
ARC
  5
2D8
330
1F
100
AcDbEntity
  8
0
  6
Continuous
 62
     7
370
    15
100
AcDbCircle
 10
-3.8460010848
 20
55.438753137
 30
0.0
 40
0.5000000000000041
100
AcDbArc
 50
100.0
 51
190.0
  0
ARC
  5
2D9
330
1F
100
AcDbEntity
  8
0
  6
Continuous
 62
     7
370
    15
100
AcDbCircle
 10
4.0324609393
 20
56.8279385583
 30
0.0
 40
0.4999999999999937
100
AcDbArc
 50
10.0
 51
100.0
  0
ARC
  5
2DA
330
1F
100
AcDbEntity
  8
0
  6
Continuous
 62
     7
370
    15
100
AcDbCircle
 10
4.6858122078
 20
53.1225993876
 30
0.0
 40
0.500000000000008
100
AcDbArc
 50
280.0
 51
10.0
  0
ARC
  5
2DB
330
1F
100
AcDbEntity
  8
0
  6
Continuous
 62
     7
370
    15
100
AcDbCircle
 10
-11.7564461983
 20
-17.3634830528
 30
0.0
 40
0.2500000000000026
100
AcDbArc
 50
259.2066050518
 51
30.0
  0
ARC
  5
2DC
330
1F
100
AcDbEntity
  8
0
  6
Continuous
 62
     7
370
    15
100
AcDbCircle
 10
-8.2451697852
 20
1.0548078003
 30
0.0
 40
22.50000000000011
100
AcDbArc
 50
156.0751805718
 51
263.9248194282
  0
ARC
  5
2DD
330
1F
100
AcDbEntity
  8
0
  6
Continuous
 62
     7
370
    15
100
AcDbCircle
 10
-4.7338933721
 20
-17.3634830528
 30
0.0
 40
0.2499999999999938
100
AcDbArc
 50
150.0
 51
280.7933949482
  0
ARC
  5
2DE
330
1F
100
AcDbEntity
  8
0
  6
Continuous
 62
     7
370
    15
100
AcDbCircle
 10
-8.2451697852
 20
1.0548078003
 30
0.0
 40
19.00000000000001
100
AcDbArc
 50
280.7933949482
 51
19.2066050518
  0
ARC
  5
2DF
330
1F
100
AcDbEntity
  8
0
  6
Continuous
 62
     7
370
    15
100
AcDbCircle
 10
9.4611761944
 20
7.2230986534
 30
0.0
 40
0.250000000000001
100
AcDbArc
 50
19.2066050518
 51
150.0
  0
ARC
  5
2E0
330
1F
100
AcDbEntity
  8
0
  6
Continuous
 62
     7
370
    15
100
AcDbCircle
 10
-25.3055411685
 20
8.6042378321
 30
0.0
 40
0.9999999999999934
100
AcDbArc
 50
30.0
 51
60.0
  0
ARC
  5
2E1
330
1F
100
AcDbEntity
  8
0
  6
Continuous
 62
     7
370
    15
100
AcDbCircle
 10
-10.2373572852
 20
-17.4946222315
 30
0.0
 40
1.000000000000075
100
AcDbArc
 50
0.0
 51
30.0
  0
ARC
  5
2E2
330
1F
100
AcDbEntity
  8
0
  6
Continuous
 62
     7
370
    15
100
AcDbCircle
 10
-6.2529822852
 20
-17.4946222315
 30
0.0
 40
0.9999999999999147
100
AcDbArc
 50
150.0
 51
180.0
  0
ARC
  5
2E3
330
1F
100
AcDbEntity
  8
0
  6
Continuous
 62
     7
370
    15
100
AcDbCircle
 10
8.815201598
 20
8.6042378321
 30
0.0
 40
0.9999999999999512
100
AcDbArc
 50
120.0
 51
150.0
  0
ARC
  5
2E4
330
1F
100
AcDbEntity
  8
0
  6
Continuous
 62
     7
370
    15
100
AcDbCircle
 10
6.823014098
 20
12.0548078003
 30
0.0
 40
0.9999999999999982
100
AcDbArc
 50
270.0
 51
300.0
  0
ARC
  5
2E5
330
1F
100
AcDbEntity
  8
0
  6
Continuous
 62
     7
370
    15
100
AcDbCircle
 10
-23.3133536685
 20
12.0548078003
 30
0.0
 40
0.9999999999999624
100
AcDbArc
 50
240.0
 51
270.0
  0
ARC
  5
2E6
330
1F
100
AcDbEntity
  8
0
  6
Continuous
 62
     7
370
    15
100
AcDbCircle
 10
-8.2451697852
 20
1.0548078003
 30
0.0
 40
22.49999999999978
100
AcDbArc
 50
36.0751805718
 51
143.9248194282
  0
ARC
  5
2E7
330
1F
100
AcDbEntity
  8
0
  6
Continuous
 62
     7
370
    15
100
AcDbCircle
 10
-8.2451697852
 20
1.0548078003
 30
0.0
 40
22.49999999999986
100
AcDbArc
 50
276.0751805718
 51
23.9248194282
  0
ARC
  5
2E8
330
1F
100
AcDbEntity
  8
0
  6
Continuous
 62
     7
370
    15
100
AcDbCircle
 10
5.9498997814
 20
13.3048078003
 30
0.0
 40
0.2500000000000047
100
AcDbArc
 50
270.0
 51
40.7933949482
  0
ARC
  5
2E9
330
1F
100
AcDbEntity
  8
0
  6
Continuous
 62
     7
370
    15
100
AcDbCircle
 10
-8.2451697852
 20
1.0548078003
 30
0.0
 40
19.00000000000002
100
AcDbArc
 50
40.7933949482
 51
139.2066050518
  0
ARC
  5
2EA
330
1F
100
AcDbEntity
  8
0
  6
Continuous
 62
     7
370
    15
100
AcDbCircle
 10
-22.4402393518
 20
13.3048078003
 30
0.0
 40
0.2499999999999985
100
AcDbArc
 50
139.2066050518
 51
270.0
  0
ARC
  5
2EB
330
1F
100
AcDbEntity
  8
0
  6
Continuous
 62
     7
370
    15
100
AcDbCircle
 10
-25.9515157649
 20
7.2230986534
 30
0.0
 40
0.2499999999999992
100
AcDbArc
 50
30.0
 51
160.7933949482
  0
ARC
  5
2EC
330
1F
100
AcDbEntity
  8
0
  6
Continuous
 62
     7
370
    15
100
AcDbCircle
 10
-8.2451697852
 20
1.0548078003
 30
0.0
 40
19.00000000000001
100
AcDbArc
 50
160.7933949482
 51
259.2066050518
  0
ARC
  5
2ED
330
1F
100
AcDbEntity
  8
0
  6
Continuous
 62
     7
370
    15
100
AcDbCircle
 10
47.8385559094
 20
28.1876787458
 30
0.0
 40
0.2500000000000012
100
AcDbArc
 50
76.1738571981
 51
172.9654592914
  0
ARC
  5
2EE
330
1F
100
AcDbEntity
  8
0
  6
Continuous
 62
     7
370
    15
100
AcDbCircle
 10
42.5213278965
 20
6.5823649027
 30
0.0
 40
22.49999999999984
100
AcDbArc
 50
89.7570613847
 51
196.1738571981
  0
ARC
  5
2EF
330
1F
100
AcDbEntity
  8
0
  6
Continuous
 62
     7
370
    15
100
AcDbCircle
 10
42.6156693652
 20
28.8321648948
 30
0.0
 40
0.2500000000000017
100
AcDbArc
 50
352.9654592914
 51
89.7570613847
  0
ARC
  5
2F0
330
1F
100
AcDbEntity
  8
0
  6
Continuous
 62
     7
370
    15
100
AcDbCircle
 10
42.5213278965
 20
6.5823649027
 30
0.0
 40
22.50000000000001
100
AcDbArc
 50
329.7570613847
 51
76.1738571981
  0
ARC
  5
2F1
330
1F
100
AcDbEntity
  8
0
  6
Continuous
 62
     7
370
    15
100
AcDbCircle
 10
61.7430491843
 20
-4.6242372019
 30
0.0
 40
0.2500000000000088
100
AcDbArc
 50
232.9654592914
 51
329.7570613847
  0
ARC
  5
2F2
330
1F
100
AcDbEntity
  8
0
  6
Continuous
 62
     7
370
    15
100
AcDbCircle
 10
58.5734645348
 20
-8.8251465558
 30
0.0
 40
0.2500000000000245
100
AcDbArc
 50
316.1738571981
 51
52.9654592914
  0
ARC
  5
2F3
330
1F
100
AcDbEntity
  8
0
  6
Continuous
 62
     7
370
    15
100
AcDbCircle
 10
42.5213278965
 20
6.5823649027
 30
0.0
 40
22.49999999999992
100
AcDbArc
 50
209.0406398633
 51
316.1738571981
  0
ARC
  5
2F4
330
1F
100
AcDbEntity
  8
0
  6
Continuous
 62
     7
370
    15
100
AcDbCircle
 10
21.1519632451
 20
0.3845625181
 30
0.0
 40
0.2500000000000073
100
AcDbArc
 50
196.1738571981
 51
292.9654592914
  0
ARC
  5
2F5
330
1F
100
AcDbEntity
  8
0
  6
Continuous
 62
     7
370
    15
100
AcDbCircle
 10
23.3364030768
 20
55.5275466488
 30
0.0
 40
0.5000000000000074
100
AcDbArc
 50
40.0
 51
130.0
  0
ARC
  5
2F6
330
1F
100
AcDbEntity
  8
0
  6
Continuous
 62
     7
370
    15
100
AcDbCircle
 10
28.4787039543
 20
49.3991911038
 30
0.0
 40
0.5000000000000038
100
AcDbArc
 50
310.0
 51
40.0
  0
ARC
  5
2F7
330
1F
100
AcDbEntity
  8
0
  6
Continuous
 62
     7
370
    15
100
AcDbCircle
 10
25.596461737
 20
46.9807027224
 30
0.0
 40
0.5000000000000066
100
AcDbArc
 50
220.0
 51
310.0
  0
ARC
  5
2F8
330
1F
100
AcDbEntity
  8
0
  6
Continuous
 62
     7
370
    15
100
AcDbCircle
 10
20.4541608595
 20
53.1090582673
 30
0.0
 40
0.5000000000000134
100
AcDbArc
 50
130.0
 51
220.0
  0
ARC
  5
2F9
330
1F
100
AcDbEntity
  8
0
  6
Continuous
 62
     7
370
    15
100
AcDbCircle
 10
12.6878519606
 20
57.5881725514
 30
0.0
 40
0.2499999999999959
100
AcDbArc
 50
330.0
 51
60.0
  0
ARC
  5
2FA
330
1F
100
AcDbEntity
  8
0
  6
Continuous
 62
     7
370
    15
100
AcDbCircle
 10
7.0897757492
 20
53.8920201287
 30
0.0
 40
0.249999999999999
100
AcDbArc
 50
150.0
 51
240.0
  0
ARC
  5
2FB
330
1F
100
AcDbEntity
  8
0
  6
Continuous
 62
     7
370
    15
100
AcDbCircle
 10
10.0897757492
 20
59.0881725514
 30
0.0
 40
0.2500000000000041
100
AcDbArc
 50
60.0
 51
150.0
  0
ARC
  5
2FC
330
1F
100
AcDbEntity
  8
0
  6
Continuous
 62
     7
370
    15
100
AcDbCircle
 10
9.6878519606
 20
52.3920201287
 30
0.0
 40
0.2500000000000036
100
AcDbArc
 50
240.0
 51
330.0
  0
ARC
  5
2FD
330
1F
100
AcDbEntity
  8
0
  6
Continuous
 62
     7
370
    15
100
AcDbCircle
 10
39.2689892559
 20
-6.2650288015
 30
0.0
 40
0.2499999999999653
100
AcDbArc
 50
300.0
 51
345.0
  0
ARC
  5
2FE
330
1F
100
AcDbEntity
  8
0
  6
Continuous
 62
     7
370
    15
100
AcDbCircle
 10
43.0213278965
 20
13.1058675946
 30
0.0
 40
0.25
100
AcDbArc
 50
180.0
 51
270.0
  0
ARC
  5
2FF
330
1F
100
AcDbEntity
  8
0
  6
Continuous
 62
     7
370
    15
100
AcDbCircle
 10
39.5814114804
 20
-5.0990531865
 30
0.0
 40
0.2500000000000337
100
AcDbArc
 50
345.0
 51
30.0
  0
ARC
  5
300
330
1F
100
AcDbEntity
  8
0
  6
Continuous
 62
     7
370
    15
100
AcDbCircle
 10
46.7713278965
 20
15.8323649027
 30
0.0
 40
0.2499999999999929
100
AcDbArc
 50
90.0
 51
180.0
  0
ARC
  5
301
330
1F
100
AcDbEntity
  8
0
  6
Continuous
 62
     7
370
    15
100
AcDbCircle
 10
42.0213278965
 20
13.1058675946
 30
0.0
 40
0.25
100
AcDbArc
 50
270.0
 51
0.0
  0
ARC
  5
302
330
1F
100
AcDbEntity
  8
0
  6
Continuous
 62
     7
370
    15
100
AcDbCircle
 10
47.2713278965
 20
13.9691162486
 30
0.0
 40
0.2500000000000018
100
AcDbArc
 50
0.0
 51
90.0
  0
ARC
  5
303
330
1F
100
AcDbEntity
  8
0
  6
Continuous
 62
     7
370
    15
100
AcDbCircle
 10
47.2713278965
 20
13.1058675946
 30
0.0
 40
0.2500000000000089
100
AcDbArc
 50
270.0
 51
0.0
  0
ARC
  5
304
330
1F
100
AcDbEntity
  8
0
  6
Continuous
 62
     7
370
    15
100
AcDbCircle
 10
38.4992135794
 20
-1.2246314382
 30
0.0
 40
0.2499999999999792
100
AcDbArc
 50
210.0
 51
300.0
  0
ARC
  5
305
330
1F
100
AcDbEntity
  8
0
  6
Continuous
 62
     7
370
    15
100
AcDbCircle
 10
36.3742135794
 20
2.4559765278
 30
0.0
 40
0.2500000000000001
100
AcDbArc
 50
120.0
 51
210.0
  0
ARC
  5
306
330
1F
100
AcDbEntity
  8
0
  6
Continuous
 62
     7
370
    15
100
AcDbCircle
 10
47.9208469493
 20
2.8876008549
 30
0.0
 40
0.2500000000000005
100
AcDbArc
 50
60.0
 51
150.0
  0
ARC
  5
307
330
1F
100
AcDbEntity
  8
0
  6
Continuous
 62
     7
370
    15
100
AcDbCircle
 10
45.7958469493
 20
-0.7930071112
 30
0.0
 40
0.2500000000000185
100
AcDbArc
 50
150.0
 51
240.0
  0
ARC
  5
308
330
1F
100
AcDbEntity
  8
0
  6
Continuous
 62
     7
370
    15
100
AcDbCircle
 10
46.5434422135
 20
-1.2246314382
 30
0.0
 40
0.2500000000000052
100
AcDbArc
 50
240.0
 51
330.0
  0
ARC
  5
309
330
1F
100
AcDbEntity
  8
0
  6
Continuous
 62
     7
370
    15
100
AcDbCircle
 10
48.6684422135
 20
2.4559765278
 30
0.0
 40
0.2499999999999994
100
AcDbArc
 50
330.0
 51
60.0
  0
ARC
  5
30A
330
1F
100
AcDbEntity
  8
0
  6
Continuous
 62
     7
370
    15
100
AcDbCircle
 10
51.9094676173
 20
6.0695971958
 30
0.0
 40
0.2499999999999931
100
AcDbArc
 50
150.0
 51
240.0
  0
ARC
  5
30B
330
1F
100
AcDbEntity
  8
0
  6
Continuous
 62
     7
370
    15
100
AcDbCircle
 10
54.107690922
 20
9.8770316459
 30
0.0
 40
0.2500000000000038
100
AcDbArc
 50
105.0
 51
150.0
  0
ARC
  5
30C
330
1F
100
AcDbEntity
  8
0
  6
Continuous
 62
     7
370
    15
100
AcDbCircle
 10
55.273666537
 20
10.1894538704
 30
0.0
 40
0.2500000000000042
100
AcDbArc
 50
60.0
 51
105.0
  0
ARC
  5
30D
330
1F
100
AcDbEntity
  8
0
  6
Continuous
 62
     7
370
    15
100
AcDbCircle
 10
55.4186654218
 20
10.221208779
 30
0.0
 40
0.1500000000000121
100
AcDbArc
 50
330.0
 51
60.0
  0
ARC
  5
30E
330
1F
100
AcDbEntity
  8
0
  6
Continuous
 62
     7
370
    15
100
AcDbCircle
 10
50.356264387
 20
11.1058675946
 30
0.0
 40
0.2500000000000124
100
AcDbArc
 50
330.0
 51
90.0
  0
ARC
  5
30F
330
1F
100
AcDbEntity
  8
0
  6
Continuous
 62
     7
370
    15
100
AcDbCircle
 10
42.5213278965
 20
-2.4646404811
 30
0.0
 40
0.2499999999999952
100
AcDbArc
 50
210.0
 51
330.0
  0
ARC
  5
310
330
1F
100
AcDbEntity
  8
0
  6
Continuous
 62
     7
370
    15
100
AcDbCircle
 10
39.2713278965
 20
14.9691162486
 30
0.0
 40
0.25
100
AcDbArc
 50
180.0
 51
270.0
  0
ARC
  5
311
330
1F
100
AcDbEntity
  8
0
  6
Continuous
 62
     7
370
    15
100
AcDbCircle
 10
49.1684422135
 20
3.3220019316
 30
0.0
 40
0.2499999999999894
100
AcDbArc
 50
240.0
 51
330.0
  0
ARC
  5
312
330
1F
100
AcDbEntity
  8
0
  6
Continuous
 62
     7
370
    15
100
AcDbCircle
 10
48.4208469493
 20
3.7536262586
 30
0.0
 40
0.2499999999999964
100
AcDbArc
 50
150.0
 51
240.0
  0
ARC
  5
313
330
1F
100
AcDbEntity
  8
0
  6
Continuous
 62
     7
370
    15
100
AcDbCircle
 10
45.4612443126
 20
-5.0990531865
 30
0.0
 40
0.2499999999999735
100
AcDbArc
 50
150.0
 51
195.0
  0
ARC
  5
314
330
1F
100
AcDbEntity
  8
0
  6
Continuous
 62
     7
370
    15
100
AcDbCircle
 10
47.6594676173
 20
-1.2916187364
 30
0.0
 40
0.2499999999999996
100
AcDbArc
 50
60.0
 51
150.0
  0
ARC
  5
315
330
1F
100
AcDbEntity
  8
0
  6
Continuous
 62
     7
370
    15
100
AcDbCircle
 10
48.4070628815
 20
-1.7232430634
 30
0.0
 40
0.2499999999999923
100
AcDbArc
 50
330.0
 51
60.0
  0
ARC
  5
316
330
1F
100
AcDbEntity
  8
0
  6
Continuous
 62
     7
370
    15
100
AcDbCircle
 10
36.6218088436
 20
3.7536262587
 30
0.0
 40
0.2500000000000041
100
AcDbArc
 50
300.0
 51
30.0
  0
ARC
  5
317
330
1F
100
AcDbEntity
  8
0
  6
Continuous
 62
     7
370
    15
100
AcDbCircle
 10
34.4968088436
 20
7.4342342247
 30
0.0
 40
0.250000000000014
100
AcDbArc
 50
30.0
 51
120.0
  0
ARC
  5
318
330
1F
100
AcDbEntity
  8
0
  6
Continuous
 62
     7
370
    15
100
AcDbCircle
 10
33.7492135794
 20
7.0026098977
 30
0.0
 40
0.249999999999999
100
AcDbArc
 50
120.0
 51
210.0
  0
ARC
  5
319
330
1F
100
AcDbEntity
  8
0
  6
Continuous
 62
     7
370
    15
100
AcDbCircle
 10
43.0213278965
 20
13.9691162486
 30
0.0
 40
0.2500000000000107
100
AcDbArc
 50
90.0
 51
180.0
  0
ARC
  5
31A
330
1F
100
AcDbEntity
  8
0
  6
Continuous
 62
     7
370
    15
100
AcDbCircle
 10
29.6239903711
 20
10.221208779
 30
0.0
 40
0.1500000000000135
100
AcDbArc
 50
120.0
 51
210.0
  0
ARC
  5
31B
330
1F
100
AcDbEntity
  8
0
  6
Continuous
 62
     7
370
    15
100
AcDbCircle
 10
29.7689892559
 20
10.1894538704
 30
0.0
 40
0.2500000000000033
100
AcDbArc
 50
75.0
 51
120.0
  0
ARC
  5
31C
330
1F
100
AcDbEntity
  8
0
  6
Continuous
 62
     7
370
    15
100
AcDbCircle
 10
30.9349648709
 20
9.877031646
 30
0.0
 40
0.2500000000000308
100
AcDbArc
 50
30.0
 51
75.0
  0
ARC
  5
31D
330
1F
100
AcDbEntity
  8
0
  6
Continuous
 62
     7
370
    15
100
AcDbCircle
 10
52.6570628815
 20
5.6379728688
 30
0.0
 40
0.2499999999999998
100
AcDbArc
 50
240.0
 51
330.0
  0
ARC
  5
31E
330
1F
100
AcDbEntity
  8
0
  6
Continuous
 62
     7
370
    15
100
AcDbCircle
 10
37.7713278965
 20
13.9691162486
 30
0.0
 40
0.2499999999999929
100
AcDbArc
 50
90.0
 51
180.0
  0
ARC
  5
31F
330
1F
100
AcDbEntity
  8
0
  6
Continuous
 62
     7
370
    15
100
AcDbCircle
 10
35.8742135794
 20
3.3220019316
 30
0.0
 40
0.2500000000000054
100
AcDbArc
 50
210.0
 51
300.0
  0
ARC
  5
320
330
1F
100
AcDbEntity
  8
0
  6
Continuous
 62
     7
370
    15
100
AcDbCircle
 10
37.1218088436
 20
2.8876008549
 30
0.0
 40
0.2500000000000162
100
AcDbArc
 50
30.0
 51
120.0
  0
ARC
  5
321
330
1F
100
AcDbEntity
  8
0
  6
Continuous
 62
     7
370
    15
100
AcDbCircle
 10
39.2468088436
 20
-0.7930071112
 30
0.0
 40
0.2499999999999926
100
AcDbArc
 50
300.0
 51
30.0
  0
ARC
  5
322
330
1F
100
AcDbEntity
  8
0
  6
Continuous
 62
     7
370
    15
100
AcDbCircle
 10
50.5458469493
 20
7.4342342247
 30
0.0
 40
0.2500000000000169
100
AcDbArc
 50
60.0
 51
150.0
  0
ARC
  5
323
330
1F
100
AcDbEntity
  8
0
  6
Continuous
 62
     7
370
    15
100
AcDbCircle
 10
51.2677557387
 20
17.8323649027
 30
0.0
 40
0.25
100
AcDbArc
 50
270.0
 51
52.1363536383
  0
ARC
  5
324
330
1F
100
AcDbEntity
  8
0
  6
Continuous
 62
     7
370
    15
100
AcDbCircle
 10
42.5213278965
 20
6.5823649027
 30
0.0
 40
14.50000000000003
100
AcDbArc
 50
52.1363536383
 51
127.8636463617
  0
ARC
  5
325
330
1F
100
AcDbEntity
  8
0
  6
Continuous
 62
     7
370
    15
100
AcDbCircle
 10
33.7749000542
 20
17.8323649027
 30
0.0
 40
0.2500000000000071
100
AcDbArc
 50
127.8636463617
 51
270.0
  0
ARC
  5
326
330
1F
100
AcDbEntity
  8
0
  6
Continuous
 62
     7
370
    15
100
AcDbCircle
 10
39.2239903711
 20
-6.4064789736
 30
0.0
 40
0.1500000000000118
100
AcDbArc
 50
210.0
 51
300.0
  0
ARC
  5
327
330
1F
100
AcDbEntity
  8
0
  6
Continuous
 62
     7
370
    15
100
AcDbCircle
 10
36.6355929115
 20
-1.7232430634
 30
0.0
 40
0.2499999999999963
100
AcDbArc
 50
120.0
 51
210.0
  0
ARC
  5
328
330
1F
100
AcDbEntity
  8
0
  6
Continuous
 62
     7
370
    15
100
AcDbCircle
 10
37.7713278965
 20
13.1058675946
 30
0.0
 40
0.2500000000000071
100
AcDbArc
 50
180.0
 51
270.0
  0
ARC
  5
329
330
1F
100
AcDbEntity
  8
0
  6
Continuous
 62
     7
370
    15
100
AcDbCircle
 10
37.3831881756
 20
-1.2916187363
 30
0.0
 40
0.2500000000000019
100
AcDbArc
 50
30.0
 51
120.0
  0
ARC
  5
32A
330
1F
100
AcDbEntity
  8
0
  6
Continuous
 62
     7
370
    15
100
AcDbCircle
 10
42.5213278965
 20
6.5823649027
 30
0.0
 40
14.5
100
AcDbArc
 50
292.1363536383
 51
7.8636463617
  0
ARC
  5
32B
330
1F
100
AcDbEntity
  8
0
  6
Continuous
 62
     7
370
    15
100
AcDbCircle
 10
47.8908997679
 20
-6.6172638011
 30
0.0
 40
0.250000000000003
100
AcDbArc
 50
150.0
 51
292.1363536383
  0
ARC
  5
32C
330
1F
100
AcDbEntity
  8
0
  6
Continuous
 62
     7
370
    15
100
AcDbCircle
 10
34.6863914059
 20
11.1058675946
 30
0.0
 40
0.2500000000000003
100
AcDbArc
 50
90.0
 51
210.0
  0
ARC
  5
32D
330
1F
100
AcDbEntity
  8
0
  6
Continuous
 62
     7
370
    15
100
AcDbCircle
 10
45.7713278965
 20
15.8323649027
 30
0.0
 40
0.2500000000000071
100
AcDbArc
 50
0.0
 51
90.0
  0
ARC
  5
32E
330
1F
100
AcDbEntity
  8
0
  6
Continuous
 62
     7
370
    15
100
AcDbCircle
 10
45.773666537
 20
-6.2650288015
 30
0.0
 40
0.2499999999999888
100
AcDbArc
 50
195.0
 51
240.0
  0
ARC
  5
32F
330
1F
100
AcDbEntity
  8
0
  6
Continuous
 62
     7
370
    15
100
AcDbCircle
 10
51.1677745059
 20
14.9691162486
 30
0.0
 40
0.2500000000000515
100
AcDbArc
 50
270.0
 51
315.0
  0
ARC
  5
330
330
1F
100
AcDbEntity
  8
0
  6
Continuous
 62
     7
370
    15
100
AcDbCircle
 10
46.7713278965
 20
14.9691162486
 30
0.0
 40
0.2499999999999947
100
AcDbArc
 50
180.0
 51
270.0
  0
ARC
  5
331
330
1F
100
AcDbEntity
  8
0
  6
Continuous
 62
     7
370
    15
100
AcDbCircle
 10
32.9213278965
 20
15.9323649027
 30
0.0
 40
0.1499999999999986
100
AcDbArc
 50
90.0
 51
180.0
  0
ARC
  5
332
330
1F
100
AcDbEntity
  8
0
  6
Continuous
 62
     7
370
    15
100
AcDbCircle
 10
42.0213278965
 20
13.9691162486
 30
0.0
 40
0.2499999999999947
100
AcDbArc
 50
0.0
 51
90.0
  0
ARC
  5
333
330
1F
100
AcDbEntity
  8
0
  6
Continuous
 62
     7
370
    15
100
AcDbCircle
 10
38.2713278965
 20
14.9691162486
 30
0.0
 40
0.2500000000000018
100
AcDbArc
 50
270.0
 51
360.0
  0
ARC
  5
334
330
1F
100
AcDbEntity
  8
0
  6
Continuous
 62
     7
370
    15
100
AcDbCircle
 10
33.8748812871
 20
14.9691162486
 30
0.0
 40
0.2500000000000209
100
AcDbArc
 50
225.0
 51
270.0
  0
ARC
  5
335
330
1F
100
AcDbEntity
  8
0
  6
Continuous
 62
     7
370
    15
100
AcDbCircle
 10
33.0213278965
 20
15.8226696392
 30
0.0
 40
0.2499999999999455
100
AcDbArc
 50
180.0
 51
225.0
  0
ARC
  5
336
330
1F
100
AcDbEntity
  8
0
  6
Continuous
 62
     7
370
    15
100
AcDbCircle
 10
28.4053281828
 20
8.5319936065
 30
0.0
 40
0.2500000000000007
100
AcDbArc
 50
30.0
 51
172.1363536383
  0
ARC
  5
337
330
1F
100
AcDbEntity
  8
0
  6
Continuous
 62
     7
370
    15
100
AcDbCircle
 10
42.5213278965
 20
6.5823649027
 30
0.0
 40
14.50000000000002
100
AcDbArc
 50
172.1363536383
 51
247.8636463617
  0
ARC
  5
338
330
1F
100
AcDbEntity
  8
0
  6
Continuous
 62
     7
370
    15
100
AcDbCircle
 10
37.151756025
 20
-6.6172638011
 30
0.0
 40
0.2500000000000039
100
AcDbArc
 50
247.8636463617
 51
30.0
  0
ARC
  5
339
330
1F
100
AcDbEntity
  8
0
  6
Continuous
 62
     7
370
    15
100
AcDbCircle
 10
32.8855929114
 20
4.771947465
 30
0.0
 40
0.2500000000000153
100
AcDbArc
 50
120.0
 51
210.0
  0
ARC
  5
33A
330
1F
100
AcDbEntity
  8
0
  6
Continuous
 62
     7
370
    15
100
AcDbCircle
 10
45.7713278965
 20
14.9691162486
 30
0.0
 40
0.2500000000000036
100
AcDbArc
 50
270.0
 51
0.0
  0
ARC
  5
33B
330
1F
100
AcDbEntity
  8
0
  6
Continuous
 62
     7
370
    15
100
AcDbCircle
 10
51.2934422135
 20
7.0026098977
 30
0.0
 40
0.2500000000000165
100
AcDbArc
 50
330.0
 51
60.0
  0
ARC
  5
33C
330
1F
100
AcDbEntity
  8
0
  6
Continuous
 62
     7
370
    15
100
AcDbCircle
 10
33.1331881756
 20
6.0695971958
 30
0.0
 40
0.2500000000000021
100
AcDbArc
 50
300.0
 51
30.0
  0
ARC
  5
33D
330
1F
100
AcDbEntity
  8
0
  6
Continuous
 62
     7
370
    15
100
AcDbCircle
 10
32.3855929114
 20
5.6379728688
 30
0.0
 40
0.2499999999999901
100
AcDbArc
 50
210.0
 51
300.0
  0
ARC
  5
33E
330
1F
100
AcDbEntity
  8
0
  6
Continuous
 62
     7
370
    15
100
AcDbCircle
 10
52.1213278965
 20
15.9323649027
 30
0.0
 40
0.1499999999999986
100
AcDbArc
 50
360.0
 51
90.0
  0
ARC
  5
33F
330
1F
100
AcDbEntity
  8
0
  6
Continuous
 62
     7
370
    15
100
AcDbCircle
 10
39.2713278965
 20
15.8323649027
 30
0.0
 40
0.2500000000000142
100
AcDbArc
 50
90.0
 51
180.0
  0
ARC
  5
340
330
1F
100
AcDbEntity
  8
0
  6
Continuous
 62
   144
370
     0
100
AcDbCircle
 10
52.0213278965
 20
15.8226696392
 30
0.0
 40
0.2500000000000071
100
AcDbArc
 50
315.0
 51
360.0
  0
ARC
  5
341
330
1F
100
AcDbEntity
  8
0
  6
Continuous
 62
   144
370
     0
100
AcDbCircle
 10
45.8186654218
 20
-6.4064789736
 30
0.0
 40
0.1500000000000079
100
AcDbArc
 50
240.0
 51
330.0
  0
ARC
  5
342
330
1F
100
AcDbEntity
  8
0
  6
Continuous
 62
     7
370
    15
100
AcDbCircle
 10
36.8831881756
 20
-0.4255933326
 30
0.0
 40
0.2500000000000057
100
AcDbArc
 50
300.0
 51
30.0
  0
ARC
  5
343
330
1F
100
AcDbEntity
  8
0
  6
Continuous
 62
     7
370
    15
100
AcDbCircle
 10
33.6331881756
 20
5.203571792
 30
0.0
 40
0.2499999999999897
100
AcDbArc
 50
30.0
 51
120.0
  0
ARC
  5
344
330
1F
100
AcDbEntity
  8
0
  6
Continuous
 62
     7
370
    15
100
AcDbCircle
 10
36.1355929115
 20
-0.8572176596
 30
0.0
 40
0.2500000000000028
100
AcDbArc
 50
210.0
 51
300.0
  0
ARC
  5
345
330
1F
100
AcDbEntity
  8
0
  6
Continuous
 62
     7
370
    15
100
AcDbCircle
 10
38.2713278965
 20
15.8323649027
 30
0.0
 40
0.2500000000000018
100
AcDbArc
 50
360.0
 51
90.0
  0
ARC
  5
346
330
1F
100
AcDbEntity
  8
0
  6
Continuous
 62
     7
370
    15
100
AcDbCircle
 10
56.6373276102
 20
8.5319936065
 30
0.0
 40
0.2500000000000022
100
AcDbArc
 50
7.8636463617
 51
150.0
  0
ARC
  5
347
330
1F
100
AcDbEntity
  8
0
  6
Continuous
 62
     7
370
    15
100
AcDbCircle
 10
51.4094676173
 20
5.203571792
 30
0.0
 40
0.2500000000000154
100
AcDbArc
 50
60.0
 51
150.0
  0
ARC
  5
348
330
1F
100
AcDbEntity
  8
0
  6
Continuous
 62
     7
370
    15
100
AcDbCircle
 10
48.1594676173
 20
-0.4255933326
 30
0.0
 40
0.2499999999999912
100
AcDbArc
 50
150.0
 51
240.0
  0
ARC
  5
349
330
1F
100
AcDbEntity
  8
0
  6
Continuous
 62
     7
370
    15
100
AcDbCircle
 10
48.9070628815
 20
-0.8572176596
 30
0.0
 40
0.2500000000000031
100
AcDbArc
 50
240.0
 51
330.0
  0
ARC
  5
34A
330
1F
100
AcDbEntity
  8
0
  6
Continuous
 62
     7
370
    15
100
AcDbCircle
 10
52.1570628815
 20
4.771947465
 30
0.0
 40
0.249999999999999
100
AcDbArc
 50
330.0
 51
60.0
  0
ARC
  5
34B
330
1F
100
AcDbEntity
  8
0
  6
Continuous
 62
     7
370
    15
100
AcDbCircle
 10
5.8866614112
 20
47.6689746131
 30
0.0
 40
0.5000000000000148
100
AcDbArc
 50
340.0
 51
70.0
  0
ARC
  5
34C
330
1F
100
AcDbEntity
  8
0
  6
Continuous
 62
     7
370
    15
100
AcDbCircle
 10
3.1505002646
 20
40.1514336468
 30
0.0
 40
0.4999999999999964
100
AcDbArc
 50
250.0
 51
340.0
  0
ARC
  5
34D
330
1F
100
AcDbEntity
  8
0
  6
Continuous
 62
     7
370
    15
100
AcDbCircle
 10
-0.3850932211
 20
41.4382844361
 30
0.0
 40
0.4999999999999969
100
AcDbArc
 50
160.0
 51
250.0
  0
ARC
  5
34E
330
1F
100
AcDbEntity
  8
0
  6
Continuous
 62
     7
370
    15
100
AcDbCircle
 10
2.3510679255
 20
48.9558254024
 30
0.0
 40
0.5000000000000057
100
AcDbArc
 50
70.0
 51
160.0
  0
ENDSEC
  0
SECTION
  2
OBJECTS
  0
DICTIONARY
  5
C
330
0
100
AcDbDictionary
281
     1
  3
ACAD_GROUP
350
D
  3
ACAD_LAYOUT
350
1A
  3
ACAD_MLEADERSTYLE
350
351
  3
ACAD_MLINESTYLE
350
17
  3
ACAD_PLOTSETTINGS
350
19
  3
ACAD_PLOTSTYLENAME
350
E
  3
ACAD_VISUALSTYLE
350
2A
  3
AcDbVariableDictionary
350
34F
  0
DICTIONARY
  5
D
102
{ACAD_REACTORS
330
C
102
}
330
C
100
AcDbDictionary
281
     1
  0
DICTIONARY
  5
1A
102
{ACAD_REACTORS
330
C
102
}
330
C
100
AcDbDictionary
281
     1
  3
Layout1
350
1E
  3
Layout2
350
26
  3
Model
350
22
  0
DICTIONARY
  5
351
102
{ACAD_REACTORS
330
C
102
}
330
C
100
AcDbDictionary
281
     1
  0
DICTIONARY
  5
17
102
{ACAD_REACTORS
330
C
102
}
330
C
100
AcDbDictionary
281
     1
  3
Standard
350
18
  0
DICTIONARY
  5
19
102
{ACAD_REACTORS
330
C
102
}
330
C
100
AcDbDictionary
281
     1
  0
ACDBDICTIONARYWDFLT
  5
E
102
{ACAD_REACTORS
330
C
102
}
330
C
100
AcDbDictionary
281
     1
  3
Normal
350
F
100
AcDbDictionaryWithDefault
340
F
  0
DICTIONARY
  5
2A
102
{ACAD_REACTORS
330
C
102
}
330
C
100
AcDbDictionary
281
     1
  3
2dWireframe
350
2F
  3
3D Hidden
350
31
  3
3dWireframe
350
30
  3
Basic
350
32
  3
Brighten
350
36
  3
ColorChange
350
3A
  3
Conceptual
350
34
  3
Dim
350
35
  3
Facepattern
350
39
  3
Flat
350
2B
  3
FlatWithEdges
350
2C
  3
Gouraud
350
2D
  3
GouraudWithEdges
350
2E
  3
Linepattern
350
38
  3
Realistic
350
33
  3
Thicken
350
37
  0
DICTIONARY
  5
34F
102
{ACAD_REACTORS
330
C
102
}
330
C
100
AcDbDictionary
281
     1
  3
DIMASSOC
350
354
  3
HIDETEXT
350
355
  3
PSOLHEIGHT
350
353
  3
PSOLWIDTH
350
352
  0
LAYOUT
  5
1E
102
{ACAD_REACTORS
330
1A
102
}
330
1A
100
AcDbPlotSettings
  1

  2
none_device
  4

  6

 40
0.0
 41
0.0
 42
0.0
 43
0.0
 44
0.0
 45
0.0
 46
0.0
 47
0.0
 48
0.0
 49
0.0
140
0.0
141
0.0
142
1.0
143
1.0
 70
   688
 72
     0
 73
     0
 74
     5
  7

 75
    16
147
1.0
148
0.0
149
0.0
100
AcDbLayout
  1
Layout1
 70
     1
 71
     1
 10
0.0
 20
0.0
 11
420.0
 21
297.0
 12
0.0
 22
0.0
 32
0.0
 14
1.0000000000E+20
 24
1.0000000000E+20
 34
1.0000000000E+20
 15
-1.0000000000E+20
 25
-1.0000000000E+20
 35
-1.0000000000E+20
146
0.0
 13
0.0
 23
0.0
 33
0.0
 16
1.0
 26
0.0
 36
0.0
 17
0.0
 27
1.0
 37
0.0
 76
     0
330
1B
  0
LAYOUT
  5
26
102
{ACAD_REACTORS
330
1A
102
}
330
1A
100
AcDbPlotSettings
  1

  2
none_device
  4

  6

 40
0.0
 41
0.0
 42
0.0
 43
0.0
 44
0.0
 45
0.0
 46
0.0
 47
0.0
 48
0.0
 49
0.0
140
0.0
141
0.0
142
1.0
143
1.0
 70
   688
 72
     0
 73
     0
 74
     5
  7

 75
    16
147
1.0
148
0.0
149
0.0
100
AcDbLayout
  1
Layout2
 70
     1
 71
     2
 10
0.0
 20
0.0
 11
0.0
 21
0.0
 12
0.0
 22
0.0
 32
0.0
 14
0.0
 24
0.0
 34
0.0
 15
0.0
 25
0.0
 35
0.0
146
0.0
 13
0.0
 23
0.0
 33
0.0
 16
1.0
 26
0.0
 36
0.0
 17
0.0
 27
1.0
 37
0.0
 76
     0
330
23
  0
LAYOUT
  5
22
102
{ACAD_REACTORS
330
1A
102
}
330
1A
100
AcDbPlotSettings
  1

  2
none_device
  4
ANSI_A_(11.00_x_8.50_Inches)
  6

 40
6.35
 41
19.05
 42
6.35000508
 43
19.05000254
 44
279.4
 45
215.9
 46
94.7518692966
 47
30.0434513281
 48
0.0
 49
0.0
140
0.0
141
0.0
142
0.088668709
143
1.0
 70
  1696
 72
     0
 73
     0
 74
     0
  7

 75
     0
147
0.0179189148
148
0.0
149
0.0
100
AcDbLayout
  1
Model
 70
     1
 71
     0
 10
0.0
 20
0.0
 11
420.0
 21
297.0
 12
0.0
 22
0.0
 32
0.0
 14
-30.7451697852
 24
-21.3188295535
 34
0.0
 15
65.0213278965
 25
73.5849994591
 35
0.0
146
0.0
 13
0.0
 23
0.0
 33
0.0
 16
1.0
 26
0.0
 36
0.0
 17
0.0
 27
1.0
 37
0.0
 76
     0
330
1F
331
29
  0
MLINESTYLE
  5
18
102
{ACAD_REACTORS
330
17
102
}
330
17
100
AcDbMlineStyle
  2
Standard
 70
     0
  3

 62
   256
 51
90.0
 52
90.0
 71
     2
 49
0.5
 62
   256
  6
BYLAYER
 49
-0.5
 62
   256
  6
BYLAYER
  0
ACDBPLACEHOLDER
  5
F
102
{ACAD_REACTORS
330
E
102
}
330
E
  0
VISUALSTYLE
  5
2F
102
{ACAD_REACTORS
330
2A
102
}
330
2A
100
AcDbVisualStyle
  2
2dWireframe
 70
     4
 71
     0
 72
     2
 73
     0
 90
        0
 40
-0.6
 41
-30.0
 62
     5
 63
     7
 74
     1
 91
        4
 64
     7
 65
   257
 75
     1
175
     1
 42
1.0
 92
        0
 66
   257
 43
1.0
 76
     1
 77
     6
 78
     2
 67
     7
 79
     5
170
     0
171
     0
290
     0
174
     0
 93
        1
 44
0.0
173
     0
291
     0
 45
0.0
1001
ACAD
1000
AcDbSavedByObjectVersion
1070
     0
  0
VISUALSTYLE
  5
31
102
{ACAD_REACTORS
330
2A
102
}
330
2A
100
AcDbVisualStyle
  2
3D Hidden
 70
     6
 71
     1
 72
     2
 73
     2
 90
        0
 40
-0.6
 41
-30.0
 62
     5
 63
     7
 74
     2
 91
        2
 64
     7
 65
   257
 75
     2
175
     1
 42
40.0
 92
        0
 66
   257
 43
1.0
 76
     1
 77
     6
 78
     2
 67
     7
 79
     3
170
     0
171
     0
290
     0
174
     0
 93
        1
 44
0.0
173
     0
291
     0
 45
0.0
1001
ACAD
1000
AcDbSavedByObjectVersion
1070
     0
  0
VISUALSTYLE
  5
30
102
{ACAD_REACTORS
330
2A
102
}
330
2A
100
AcDbVisualStyle
  2
3dWireframe
 70
     5
 71
     0
 72
     2
 73
     0
 90
        0
 40
-0.6
 41
-30.0
 62
     5
 63
     7
 74
     1
 91
        4
 64
     7
 65
   257
 75
     1
175
     1
 42
1.0
 92
        0
 66
   257
 43
1.0
 76
     1
 77
     6
 78
     2
 67
     7
 79
     5
170
     0
171
     0
290
     0
174
     0
 93
        1
 44
0.0
173
     0
291
     0
 45
0.0
1001
ACAD
1000
AcDbSavedByObjectVersion
1070
     0
  0
VISUALSTYLE
  5
32
102
{ACAD_REACTORS
330
2A
102
}
330
2A
100
AcDbVisualStyle
  2
Basic
 70
     7
 71
     1
 72
     0
 73
     1
 90
        0
 40
-0.6
 41
-30.0
 62
     5
 63
     7
 74
     0
 91
        4
 64
     7
 65
   257
 75
     1
175
     1
 42
1.0
 92
        8
 66
     7
 43
1.0
 76
     1
 77
     6
 78
     2
 67
     7
 79
     5
170
     0
171
     0
290
     0
174
     0
 93
        1
 44
0.0
173
     0
291
     1
 45
0.0
1001
ACAD
1000
AcDbSavedByObjectVersion
1070
     0
  0
VISUALSTYLE
  5
36
102
{ACAD_REACTORS
330
2A
102
}
330
2A
100
AcDbVisualStyle
  2
Brighten
 70
    12
 71
     2
 72
     2
 73
     0
 90
        0
 40
-0.6
 41
-30.0
 62
     5
 63
     7
 74
     1
 91
        4
 64
     7
 65
   257
 75
     1
175
     1
 42
1.0
 92
        8
 66
     7
 43
1.0
 76
     1
 77
     6
 78
     2
 67
     7
 79
     5
170
     0
171
     0
290
     0
174
     0
 93
        1
 44
50.0
173
     0
291
     1
 45
0.0
1001
ACAD
1000
AcDbSavedByObjectVersion
1070
     0
  0
VISUALSTYLE
  5
3A
102
{ACAD_REACTORS
330
2A
102
}
330
2A
100
AcDbVisualStyle
  2
ColorChange
 70
    16
 71
     2
 72
     2
 73
     3
 90
        0
 40
-0.6
 41
-30.0
 62
     5
 63
     8
 74
     1
 91
        4
 64
     7
 65
   257
 75
     1
175
     1
 42
1.0
 92
        8
 66
     8
 43
1.0
 76
     1
 77
     6
 78
     2
 67
     7
 79
     5
170
     0
171
     0
290
     0
174
     0
 93
        1
 44
0.0
173
     0
291
     1
 45
0.0
1001
ACAD
1000
AcDbSavedByObjectVersion
1070
     0
  0
VISUALSTYLE
  5
34
102
{ACAD_REACTORS
330
2A
102
}
330
2A
100
AcDbVisualStyle
  2
Conceptual
 70
     9
 71
     3
 72
     2
 73
     0
 90
        0
 40
-0.6
 41
-30.0
 62
     5
 63
     7
 74
     2
 91
        2
 64
     7
 65
   257
 75
     1
175
     1
 42
40.0
 92
        8
 66
     7
 43
1.0
 76
     1
 77
     6
 78
     2
 67
     7
 79
     3
170
     0
171
     0
290
     0
174
     0
 93
        1
 44
0.0
173
     0
291
     0
 45
0.0
1001
ACAD
1000
AcDbSavedByObjectVersion
1070
     0
  0
VISUALSTYLE
  5
35
102
{ACAD_REACTORS
330
2A
102
}
330
2A
100
AcDbVisualStyle
  2
Dim
 70
    11
 71
     2
 72
     2
 73
     0
 90
        0
 40
-0.6
 41
-30.0
 62
     5
 63
     7
 74
     1
 91
        4
 64
     7
 65
   257
 75
     1
175
     1
 42
1.0
 92
        8
 66
     7
 43
1.0
 76
     1
 77
     6
 78
     2
 67
     7
 79
     5
170
     0
171
     0
290
     0
174
     0
 93
        1
 44
-50.0
173
     0
291
     1
 45
0.0
1001
ACAD
1000
AcDbSavedByObjectVersion
1070
     0
  0
VISUALSTYLE
  5
39
102
{ACAD_REACTORS
330
2A
102
}
330
2A
100
AcDbVisualStyle
  2
Facepattern
 70
    15
 71
     2
 72
     2
 73
     0
 90
        0
 40
-0.6
 41
-30.0
 62
     5
 63
     7
 74
     1
 91
        4
 64
     7
 65
   257
 75
     1
175
     1
 42
1.0
 92
        8
 66
     7
 43
1.0
 76
     1
 77
     6
 78
     2
 67
     7
 79
     5
170
     0
171
     0
290
     0
174
     0
 93
        1
 44
0.0
173
     0
291
     1
 45
0.0
1001
ACAD
1000
AcDbSavedByObjectVersion
1070
     0
  0
VISUALSTYLE
  5
2B
102
{ACAD_REACTORS
330
2A
102
}
330
2A
100
AcDbVisualStyle
  2
Flat
 70
     0
 71
     2
 72
     1
 73
     1
 90
        2
 40
-0.6
 41
30.0
 62
     5
 63
     7
 74
     0
 91
        4
 64
     7
 65
   257
 75
     1
175
     1
 42
1.0
 92
        8
 66
     7
 43
1.0
 76
     1
 77
     6
 78
     2
 67
     7
 79
     5
170
     0
171
     0
290
     0
174
     0
 93
       13
 44
0.0
173
     0
291
     1
 45
0.0
1001
ACAD
1000
AcDbSavedByObjectVersion
1070
     0
  0
VISUALSTYLE
  5
2C
102
{ACAD_REACTORS
330
2A
102
}
330
2A
100
AcDbVisualStyle
  2
FlatWithEdges
 70
     1
 71
     2
 72
     1
 73
     1
 90
        2
 40
-0.6
 41
30.0
 62
     5
 63
     7
 74
     1
 91
        4
 64
     7
 65
   257
 75
     1
175
     1
 42
1.0
 92
        0
 66
   257
 43
1.0
 76
     1
 77
     6
 78
     2
 67
     7
 79
     5
170
     0
171
     0
290
     0
174
     0
 93
       13
 44
0.0
173
     0
291
     1
 45
0.0
1001
ACAD
1000
AcDbSavedByObjectVersion
1070
     0
  0
VISUALSTYLE
  5
2D
102
{ACAD_REACTORS
330
2A
102
}
330
2A
100
AcDbVisualStyle
  2
Gouraud
 70
     2
 71
     2
 72
     2
 73
     1
 90
        2
 40
-0.6
 41
30.0
 62
     5
 63
     7
 74
     0
 91
        4
 64
     7
 65
   257
 75
     1
175
     1
 42
1.0
 92
        0
 66
     7
 43
1.0
 76
     1
 77
     6
 78
     2
 67
     7
 79
     5
170
     0
171
     0
290
     0
174
     0
 93
       13
 44
0.0
173
     0
291
     1
 45
0.0
1001
ACAD
1000
AcDbSavedByObjectVersion
1070
     0
  0
VISUALSTYLE
  5
2E
102
{ACAD_REACTORS
330
2A
102
}
330
2A
100
AcDbVisualStyle
  2
GouraudWithEdges
 70
     3
 71
     2
 72
     2
 73
     1
 90
        2
 40
-0.6
 41
30.0
 62
     5
 63
     7
 74
     1
 91
        4
 64
     7
 65
   257
 75
     1
175
     1
 42
1.0
 92
        0
 66
   257
 43
1.0
 76
     1
 77
     6
 78
     2
 67
     7
 79
     5
170
     0
171
     0
290
     0
174
     0
 93
       13
 44
0.0
173
     0
291
     1
 45
0.0
1001
ACAD
1000
AcDbSavedByObjectVersion
1070
     0
  0
VISUALSTYLE
  5
38
102
{ACAD_REACTORS
330
2A
102
}
330
2A
100
AcDbVisualStyle
  2
Linepattern
 70
    14
 71
     2
 72
     2
 73
     0
 90
        0
 40
-0.6
 41
-30.0
 62
     5
 63
     7
 74
     1
 91
        4
 64
     7
 65
   257
 75
     7
175
     7
 42
1.0
 92
        8
 66
     7
 43
1.0
 76
     1
 77
     6
 78
     2
 67
     7
 79
     5
170
     0
171
     0
290
     0
174
     0
 93
        1
 44
0.0
173
     0
291
     1
 45
0.0
1001
ACAD
1000
AcDbSavedByObjectVersion
1070
     0
  0
VISUALSTYLE
  5
33
102
{ACAD_REACTORS
330
2A
102
}
330
2A
100
AcDbVisualStyle
  2
Realistic
 70
     8
 71
     2
 72
     2
 73
     0
 90
        0
 40
-0.6
 41
-30.0
 62
     5
 63
     7
 74
     1
 91
        0
 64
     7
 65
   257
 75
     1
175
     1
 42
1.0
 92
        8
 66
     8
 43
1.0
 76
     1
 77
     6
 78
     2
 67
     7
 79
     5
170
     0
171
     0
290
     0
174
     0
 93
       13
 44
0.0
173
     0
291
     0
 45
0.0
1001
ACAD
1000
AcDbSavedByObjectVersion
1070
     0
  0
VISUALSTYLE
  5
37
102
{ACAD_REACTORS
330
2A
102
}
330
2A
100
AcDbVisualStyle
  2
Thicken
 70
    13
 71
     2
 72
     2
 73
     0
 90
        0
 40
-0.6
 41
-30.0
 62
     5
 63
     7
 74
     1
 91
        4
 64
     7
 65
   257
 75
     1
175
     1
 42
1.0
 92
       12
 66
     7
 43
1.0
 76
     1
 77
     6
 78
     2
 67
     7
 79
     5
170
     0
171
     0
290
     0
174
     0
 93
        1
 44
0.0
173
     0
291
     1
 45
0.0
1001
ACAD
1000
AcDbSavedByObjectVersion
1070
     0
  0
DICTIONARYVAR
  5
354
102
{ACAD_REACTORS
330
34F
102
}
330
34F
100
DictionaryVariables
280
     0
  1
2
  0
DICTIONARYVAR
  5
355
102
{ACAD_REACTORS
330
34F
102
}
330
34F
100
DictionaryVariables
280
     0
  1
1
  0
DICTIONARYVAR
  5
353
102
{ACAD_REACTORS
330
34F
102
}
330
34F
100
DictionaryVariables
280
     0
  1
80.000000
  0
DICTIONARYVAR
  5
352
102
{ACAD_REACTORS
330
34F
102
}
330
34F
100
DictionaryVariables
280
     0
  1
5.000000
  0
ENDSEC
  0
EOF
